<?xml version="1.0" standalone="no"?>
<!DOCTYPE svg PUBLIC "-//W3C//DTD SVG 20010904//EN"
 "http://www.w3.org/TR/2001/REC-SVG-20010904/DTD/svg10.dtd">
<svg version="1.0" xmlns="http://www.w3.org/2000/svg"
 width="1024.000000pt" height="1024.000000pt" viewBox="0 0 1024.000000 1024.000000"
 preserveAspectRatio="xMidYMid meet">

<g transform="translate(0.000000,1024.000000) scale(0.100000,-0.100000)"
fill="#000000" stroke="none">
<path d="M0 5120 l0 -5120 5120 0 5120 0 0 5120 0 5120 -5120 0 -5120 0 0
-5120z m1440 4026 c0 -3 -4 -8 -10 -11 -5 -3 -10 -1 -10 4 0 6 5 11 10 11 6 0
10 -2 10 -4z m-130 -269 c0 -2 -12 -14 -27 -28 l-28 -24 24 28 c23 25 31 32
31 24z m-111 -113 c-13 -14 -33 -30 -44 -36 -11 -6 -2 6 20 25 47 43 58 48 24
11z m831 -337 c52 -39 97 -71 99 -73 10 -9 -65 -290 -83 -311 -2 -2 -21 5 -44
14 l-42 16 0 64 c0 35 -6 73 -12 86 -18 31 -110 127 -123 127 -6 0 -32 -21
-57 -47 l-47 -48 5 -475 c3 -261 7 -479 9 -485 1 -5 33 -26 69 -45 l66 -35 83
83 84 84 53 -98 c28 -54 48 -100 43 -101 -5 -2 -50 -30 -101 -63 -91 -58 -92
-59 -185 -66 l-94 -7 -104 73 c-57 40 -114 80 -126 89 l-22 16 -1 547 0 547
58 44 c31 24 98 71 148 105 50 34 99 71 109 82 20 22 -1 34 215 -123z m2692
-32 c8 -11 6 -21 -22 -135 -31 -123 -57 -196 -63 -180 -3 8 -20 57 -38 108
-22 65 -43 105 -71 137 -38 43 -42 45 -95 45 -43 0 -61 -5 -89 -26 l-34 -26 0
-137 1 -136 229 -170 229 -170 1 -220 0 -221 -112 -102 -113 -101 -147 -1
-148 0 -92 57 c-51 31 -98 61 -105 67 -13 12 24 143 82 295 25 66 28 69 49 59
19 -8 24 -20 29 -68 9 -78 28 -130 65 -178 31 -38 35 -40 106 -47 69 -6 77 -5
115 19 l41 26 0 138 0 137 -107 85 c-60 47 -161 125 -225 174 l-118 89 0 241
0 241 106 75 106 75 122 5 121 5 85 -75 c47 -41 88 -79 92 -85z m-1920 102
c35 -29 89 -73 122 -98 l59 -46 4 -225 5 -225 -81 -52 c-45 -29 -86 -49 -92
-45 -35 21 16 -32 81 -85 l75 -61 5 -222 c6 -250 3 -241 89 -330 l45 -48 -140
0 c-135 0 -142 1 -167 24 -14 13 -28 35 -31 48 -3 12 -7 119 -10 237 l-4 214
-50 50 c-48 47 -51 49 -83 39 -19 -6 -51 -13 -71 -17 l-38 -6 0 -233 0 -233
29 -40 c16 -22 41 -50 56 -61 l28 -22 -206 0 c-113 0 -214 -3 -224 -6 -11 -5
-5 7 18 32 20 21 45 52 57 68 l22 29 0 616 0 616 -25 38 c-16 23 -48 48 -83
67 l-57 29 302 0 303 0 62 -52z m642 -4 l-26 -58 2 -565 1 -565 31 -32 c30
-31 37 -33 97 -33 60 0 68 3 98 32 l33 32 0 547 c0 363 -4 557 -11 576 -5 15
-28 49 -50 76 l-40 47 207 0 207 0 -41 -38 c-77 -71 -74 -43 -71 -701 l3 -585
-105 -83 -104 -83 -132 0 -132 0 -105 88 -105 87 -1 595 0 594 -64 62 -63 62
198 1 199 2 -26 -58z m2076 27 c-34 -48 -34 -84 4 -265 19 -93 76 -365 126
-603 54 -259 98 -449 111 -473 11 -23 38 -61 60 -84 l41 -44 -227 -1 -226 0
40 50 c22 27 42 64 46 81 7 32 0 102 -15 154 -5 17 -14 56 -20 88 l-11 57
-144 0 c-166 0 -147 16 -166 -140 -11 -83 -10 -102 5 -152 9 -32 30 -74 47
-93 26 -30 28 -35 13 -35 -11 0 -107 -3 -214 -6 l-195 -6 43 37 c80 69 91 106
187 600 127 655 136 704 129 733 -9 38 -51 109 -72 121 -12 7 56 10 221 11
l238 0 -21 -30z m1043 -34 c46 -36 107 -86 135 -111 l52 -47 0 -512 0 -511
-124 -124 -123 -123 -307 -1 c-168 -1 -306 0 -306 1 0 2 22 24 49 48 85 77 82
47 79 716 l-3 586 -31 39 c-17 21 -52 53 -78 71 l-48 32 311 0 311 0 83 -64z
m1057 -137 c0 -119 -4 -198 -9 -195 -5 4 -25 34 -45 69 -40 71 -87 124 -123
138 -13 5 -71 9 -129 9 l-104 0 0 -230 0 -230 115 0 115 0 40 36 c22 20 43 34
48 32 5 -1 -15 -79 -44 -173 l-52 -170 -28 58 -28 57 -83 0 -83 0 0 -250 0
-250 90 0 c130 0 182 14 222 59 19 20 55 76 82 124 26 48 49 87 52 87 2 0 4
-103 4 -230 l0 -230 -400 -2 c-220 -2 -400 -2 -400 0 0 1 18 18 39 38 22 19
49 54 60 78 20 41 21 57 21 621 0 663 5 624 -93 710 l-52 45 393 0 392 0 0
-201z m788 163 c24 -20 78 -64 119 -97 l75 -60 0 -225 -1 -225 -85 -59 -85
-60 28 -20 c15 -12 48 -39 74 -62 l46 -40 0 -215 c1 -202 2 -216 24 -259 13
-24 47 -64 75 -87 l53 -43 -154 0 -154 0 -27 50 c-27 50 -27 51 -28 259 l0
208 -53 53 c-44 43 -56 50 -71 42 -11 -6 -42 -12 -69 -14 l-50 -3 -3 -239 c-2
-226 -1 -240 18 -272 12 -18 34 -44 51 -58 16 -14 29 -26 29 -28 0 -3 -344 1
-418 5 l-43 2 49 36 c86 65 82 28 82 700 l0 592 -24 41 c-13 23 -42 55 -65 71
-22 17 -41 33 -41 37 0 4 136 8 302 8 l301 0 45 -38z m-4238 -1780 c0 -5 -11
-14 -24 -20 -42 -19 -154 -132 -194 -195 -54 -85 -65 -126 -60 -211 11 -160
111 -270 276 -303 73 -14 85 -14 156 1 92 21 197 72 258 126 l45 39 66 -91
c40 -53 64 -95 59 -102 -4 -6 -36 -58 -71 -115 l-65 -104 -25 72 c-14 39 -28
71 -31 71 -4 0 -15 -6 -25 -14 -19 -14 -19 -16 12 -116 31 -102 31 -102 12
-134 -10 -17 -40 -43 -67 -58 l-50 -28 -7 135 c-7 140 -8 141 -52 129 -23 -6
-23 -9 -23 -160 l0 -154 -42 -27 c-29 -19 -43 -24 -46 -15 -2 6 -8 12 -14 12
-7 0 -7 -4 1 -13 8 -10 3 -19 -21 -37 l-31 -23 7 64 c8 76 34 263 42 300 5 25
2 27 -35 31 -32 3 -41 0 -41 -12 1 -32 -65 -414 -68 -397 -4 21 -22 23 -22 1
0 -8 -4 -12 -10 -9 -5 3 -10 1 -10 -4 0 -6 11 -11 25 -11 14 0 25 -4 25 -9 0
-15 -149 -93 -161 -85 -7 4 -9 3 -6 -3 4 -6 -5 -15 -19 -22 -33 -15 -37 -14
-30 6 4 9 36 116 71 237 36 122 71 239 79 261 21 55 20 59 -15 72 -28 11 -31
10 -40 -14 -41 -107 -73 -173 -85 -173 -8 0 -14 -5 -14 -11 0 -5 5 -7 12 -3
14 9 17 18 -70 -193 -37 -88 -69 -160 -72 -158 -3 2 -6 -8 -6 -21 -1 -13 -9
-35 -18 -49 -14 -21 -24 -25 -69 -25 -48 0 -146 13 -189 26 -13 4 5 38 90 178
91 148 110 172 129 170 13 -1 21 1 18 6 -3 5 1 10 7 13 7 2 9 8 5 13 -5 5 -15
1 -23 -10 -33 -46 -10 11 37 89 47 78 53 84 72 74 20 -9 21 -9 4 4 -17 14 -16
19 24 83 l41 68 -22 18 c-12 10 -25 18 -29 17 -3 0 -46 -54 -96 -120 -217
-289 -225 -299 -243 -293 -13 5 -14 4 -3 -4 11 -8 -5 -35 -79 -130 -84 -110
-94 -120 -115 -112 -37 14 -158 77 -185 97 l-25 18 327 320 c180 176 327 324
328 328 0 4 -7 19 -16 32 l-16 25 -40 -33 c-22 -17 -75 -59 -118 -92 -43 -33
-166 -129 -274 -213 -117 -91 -201 -150 -207 -146 -7 4 -9 3 -6 -4 4 -5 -24
-33 -64 -62 -60 -45 -73 -51 -92 -43 -31 15 -217 153 -217 162 0 4 51 33 113
66 61 32 193 103 292 159 99 55 268 148 375 206 186 102 195 108 198 139 l3
31 -48 -19 c-216 -85 -1068 -441 -1095 -457 -11 -7 -113 82 -110 95 1 7 -2 10
-8 6 -8 -5 -134 94 -127 101 1 1 65 19 142 39 124 32 315 85 925 255 96 27
206 57 244 68 63 16 69 21 72 46 3 28 2 28 -39 22 -23 -4 -85 -15 -137 -27
-269 -57 -1221 -241 -1323 -256 -36 -6 -40 -3 -148 103 -90 89 -107 110 -92
116 10 3 155 20 323 38 168 17 377 40 465 50 88 10 246 26 350 35 105 9 265
22 357 30 91 8 185 15 207 15 40 0 71 20 71 46 0 11 -20 13 -117 9 -65 -3
-293 -12 -508 -20 -214 -9 -424 -18 -465 -20 -68 -5 -804 -45 -823 -45 -5 0
-5 5 -2 10 3 6 2 10 -4 10 -5 0 -12 -6 -15 -12 -3 -8 -53 37 -126 112 l-121
125 1318 5 c725 3 1319 6 1321 8 1 1 2 -2 2 -6z m4501 -19 c-5 -10 -59 -67
-119 -127 l-110 -109 -89 7 c-103 7 -229 14 -403 21 -69 3 -197 10 -285 15
-88 5 -275 14 -415 20 -338 13 -424 20 -432 34 -5 7 -8 7 -8 -3 0 -12 -24 -13
-145 -8 -140 6 -145 6 -145 -14 0 -11 10 -23 23 -29 12 -5 150 -18 307 -30
157 -12 326 -26 375 -31 50 -5 180 -18 290 -29 110 -11 211 -22 225 -25 14 -2
77 -9 140 -15 63 -5 185 -17 270 -25 85 -8 159 -15 165 -15 5 0 -37 -47 -94
-104 -58 -58 -109 -102 -114 -99 -6 3 -7 1 -3 -6 4 -6 1 -14 -8 -17 -15 -6
-271 40 -681 121 -452 90 -791 158 -825 164 -35 7 -36 7 -32 -25 3 -28 9 -34
36 -39 17 -4 94 -24 171 -46 77 -21 226 -62 330 -89 105 -28 333 -89 508 -135
175 -47 324 -88 331 -92 9 -6 -18 -35 -92 -98 -58 -49 -111 -94 -119 -98 -9
-6 -55 9 -131 41 -290 124 -1033 425 -1037 420 -2 -2 -6 -14 -10 -28 -6 -25 1
-30 137 -100 79 -40 226 -118 328 -173 102 -55 227 -122 278 -149 54 -29 89
-54 85 -60 -3 -6 -1 -8 5 -4 14 9 83 -25 75 -37 -3 -6 -1 -7 5 -3 7 4 30 -4
52 -17 l40 -24 -42 -34 c-57 -46 -187 -139 -194 -139 -3 0 -19 9 -35 21 -24
17 -28 24 -18 35 10 12 9 17 -1 27 -10 10 -12 9 -7 -5 13 -36 -14 -27 -90 30
-43 32 -158 118 -256 191 -97 73 -175 136 -172 141 3 5 0 12 -6 16 -8 4 -9 3
-5 -4 15 -25 -9 -9 -111 69 -93 72 -107 80 -115 64 -6 -9 -19 -26 -29 -36 -20
-20 -18 -39 4 -39 8 0 8 3 -2 9 -8 5 -9 11 -3 15 15 9 228 -195 225 -216 -2
-10 2 -18 8 -18 5 0 7 5 4 10 -19 30 20 -3 134 -113 69 -68 165 -161 213 -207
97 -93 97 -95 23 -134 -29 -16 -38 -17 -44 -7 -6 9 -11 10 -15 2 -4 -6 -2 -11
4 -11 22 0 -3 -22 -47 -41 -25 -10 -48 -19 -52 -19 -4 0 -44 45 -87 101 -71
91 -115 146 -232 289 -21 24 -36 50 -36 57 1 7 -4 13 -11 13 -10 0 -132 142
-166 193 -4 5 -16 3 -30 -5 -13 -7 -25 -14 -27 -14 -2 -1 27 -47 63 -102 58
-88 65 -104 55 -122 -12 -23 -8 -36 9 -26 6 4 7 14 4 24 -4 11 -3 14 4 7 11
-11 123 -183 123 -189 0 -2 -9 -2 -20 1 -12 3 -20 14 -21 27 0 20 -1 20 -8 1
-12 -30 -2 -44 29 -40 26 3 34 -5 114 -131 47 -74 86 -136 86 -138 0 -10 -108
-28 -180 -29 l-82 -2 -94 195 c-51 107 -92 199 -90 205 1 5 -2 15 -9 21 -6 6
-33 60 -60 120 -27 60 -50 110 -51 112 -2 3 -43 -15 -52 -23 -2 -2 15 -56 38
-121 101 -293 121 -356 115 -377 -4 -15 -4 -18 3 -8 7 9 14 1 25 -34 16 -46
16 -46 -6 -39 -52 15 -191 90 -202 109 -7 11 -15 40 -19 65 -3 25 -7 54 -10
65 -2 11 -16 88 -31 170 -15 83 -28 150 -29 151 0 1 -19 4 -41 7 -22 4 -35 3
-28 -1 7 -5 18 -71 28 -172 8 -91 18 -175 20 -187 5 -20 -4 -17 -74 28 -93 59
-91 55 -89 219 1 64 -2 121 -6 128 -10 16 -46 16 -46 0 0 -33 -22 -253 -25
-256 -2 -2 -20 2 -40 9 -28 11 -43 25 -61 61 l-24 48 27 101 c26 99 26 102 8
115 -22 16 -25 13 -61 -74 l-21 -53 -67 109 c-36 60 -66 113 -66 117 0 4 32
47 71 96 l71 89 41 -40 c56 -54 189 -118 271 -131 165 -26 316 51 383 197 70
154 25 301 -145 462 l-77 72 1298 0 c1233 0 1297 -1 1288 -17z m-4147 -169 c3
-9 4 -20 0 -25 -8 -13 10 -11 23 2 8 8 17 7 33 -4 16 -11 18 -16 6 -20 -8 -3
-24 -3 -35 0 -26 7 -28 -16 -3 -45 12 -15 22 -18 37 -12 20 9 20 9 0 9 -11 1
-26 10 -33 21 -15 24 -7 26 15 4 9 -8 25 -13 35 -11 14 4 18 1 14 -9 -3 -8 -2
-13 2 -10 5 3 9 21 10 41 1 20 -3 33 -8 30 -5 -3 -13 2 -18 11 -5 9 -12 15
-15 15 -24 -3 -47 0 -47 7 0 4 9 8 20 9 11 1 20 -2 20 -7 0 -4 10 -6 22 -2 14
3 19 2 14 -6 -4 -7 -1 -12 8 -12 9 0 16 -8 16 -17 0 -13 6 -10 20 12 17 26 24
29 62 26 24 -2 48 -10 56 -19 12 -15 13 -15 9 -1 -4 13 5 18 46 22 28 4 52 5
54 3 2 -1 0 -16 -3 -33 -4 -22 -14 -33 -37 -41 -47 -17 -131 -129 -173 -230
-1 -1 -54 49 -118 113 l-116 115 -60 0 -60 0 0 40 0 40 99 0 c81 0 100 -3 105
-16z m979 3 c26 -1 47 2 47 6 0 5 10 5 23 1 12 -4 36 -7 52 -6 28 2 29 1 10
-11 -12 -6 -19 -19 -17 -29 2 -10 -5 -19 -17 -23 -20 -6 -20 -6 0 -40 30 -50
49 -63 61 -42 5 10 13 15 19 12 5 -4 9 -1 9 5 0 8 -9 10 -25 6 -19 -5 -25 -2
-25 9 0 9 -4 13 -10 10 -6 -3 -7 1 -4 10 5 11 2 14 -10 9 -9 -3 -16 -2 -16 3
0 20 39 11 47 -11 6 -18 12 -22 28 -15 17 6 17 8 3 8 -21 1 -25 21 -4 21 15 0
30 39 15 41 -5 1 -13 2 -19 3 -5 0 -10 4 -10 9 0 39 2 41 12 20 12 -25 31 -32
22 -9 -7 18 11 23 76 20 30 -1 76 -3 103 -3 47 -1 47 -1 47 -36 l0 -35 -62 0
-63 0 -90 -84 c-50 -46 -102 -100 -115 -119 l-24 -35 -32 65 c-42 83 -99 152
-139 168 -26 11 -31 20 -33 51 l-3 37 48 -7 c26 -4 69 -8 96 -9z m-893 -62
c-7 -8 -18 -15 -24 -15 -6 0 -2 7 8 15 25 19 32 19 16 0z m1070 5 c0 -5 -4
-10 -10 -10 -5 0 -10 5 -10 10 0 6 5 10 10 10 6 0 10 -4 10 -10z m-1228 -97
c45 -44 47 -53 11 -53 -50 0 -106 -21 -136 -52 -16 -16 -33 -26 -37 -21 -4 4
-26 33 -48 63 l-41 54 92 22 c123 29 116 29 159 -13z m1474 16 c54 -11 100
-22 102 -24 5 -5 -52 -86 -75 -108 -20 -17 -21 -17 -37 9 -20 30 -62 49 -129
59 l-49 8 38 38 c21 22 41 39 44 39 4 0 51 -9 106 -21z m-1051 -16 c17 -16 66
-55 108 -87 43 -33 77 -61 77 -63 0 -15 -155 -301 -160 -295 -4 4 -46 63 -94
130 l-88 124 12 46 c9 38 93 170 109 172 2 0 18 -12 36 -27z m563 -28 c24 -30
52 -77 63 -106 l20 -51 -34 -42 c-19 -22 -64 -83 -100 -133 l-65 -93 -79 149
-79 149 110 90 c61 50 113 91 116 91 3 0 24 -24 48 -54z m-177 -528 c29 -75
50 -139 47 -142 -2 -3 -20 0 -39 5 -18 6 -49 10 -68 10 -20 0 -40 7 -48 18 -8
9 -12 12 -9 6 4 -8 -22 -14 -79 -18 -47 -4 -99 -12 -116 -18 -16 -6 -32 -8
-34 -6 -4 3 133 374 185 503 13 33 6 49 161 -358z m-421 25 c26 -46 25 -53
-21 -156 -17 -40 -21 -42 -94 -61 -41 -10 -77 -16 -81 -13 -3 3 29 74 71 158
85 168 75 163 125 72z m667 -77 c42 -86 74 -158 71 -161 -3 -2 -37 3 -75 12
-64 16 -71 20 -82 50 -9 25 -9 39 -1 56 10 21 10 21 -3 5 -13 -16 -16 -13 -36
32 l-21 49 32 56 c18 31 34 56 36 56 1 0 37 -70 79 -155z m-151 -220 c233 -44
483 -177 652 -345 78 -77 99 -106 69 -94 -7 2 -21 -4 -31 -15 -16 -18 -16 -19
0 -17 9 0 19 -5 22 -13 3 -10 0 -12 -11 -8 -9 3 -19 2 -22 -2 -11 -18 23 -18
51 -1 26 18 30 18 46 3 17 -15 17 -17 0 -29 -12 -9 -19 -9 -24 -1 -4 6 -10 8
-15 4 -4 -5 -1 -12 6 -17 9 -5 11 -15 7 -26 -6 -16 -3 -15 14 4 28 30 42 28
64 -10 l17 -33 -21 27 c-21 28 -50 28 -50 1 0 -10 7 -13 23 -8 19 5 20 4 5 -5
-10 -6 -18 -15 -18 -21 0 -6 6 -6 18 -1 18 10 62 -1 62 -16 0 -10 -36 -9 -46
1 -12 12 -26 8 -18 -5 5 -7 3 -8 -5 -4 -8 5 -14 0 -18 -13 -3 -12 -10 -18 -17
-14 -6 4 -6 1 2 -9 10 -12 9 -21 -2 -43 -13 -26 -13 -30 2 -41 23 -18 1 -18
-23 0 -16 11 -17 17 -7 29 10 11 10 16 1 19 -14 5 5 46 30 64 12 10 11 12 -11
12 -14 0 -25 -6 -25 -12 1 -35 -4 -48 -17 -43 -7 3 -20 -3 -30 -14 -19 -23
-21 -33 -3 -22 6 4 20 9 31 10 14 3 16 0 8 -10 -6 -7 -9 -22 -7 -32 2 -11 4
-26 4 -32 1 -7 9 -13 18 -13 11 0 6 -8 -17 -25 -25 -18 -37 -22 -47 -14 -13
12 -9 29 8 29 6 0 7 -5 3 -12 -4 -7 -3 -8 4 -4 7 4 12 14 12 23 0 14 -2 14
-22 0 -13 -8 -22 -20 -21 -26 2 -6 -2 -11 -7 -11 -6 0 -10 6 -11 13 0 6 -4 1
-10 -11 -11 -28 -3 -46 17 -38 9 3 14 -2 14 -14 0 -11 5 -20 10 -20 13 0 13 6
-1 31 -6 12 -17 18 -25 15 -8 -3 -14 -1 -14 4 0 5 23 8 52 8 34 -1 45 -4 32
-9 -17 -7 -17 -8 -1 -8 21 -1 23 -21 2 -21 -8 0 -15 5 -15 10 0 6 -4 10 -10
10 -18 0 -11 -18 10 -25 18 -6 20 -15 19 -93 -1 -48 -4 -130 -8 -183 -6 -94
-2 -151 14 -199 7 -22 6 -23 -9 -11 -9 7 -16 10 -16 7 0 -12 27 -36 33 -30 3
3 10 -3 16 -14 17 -32 0 -34 -32 -5 -27 26 -29 26 -18 5 7 -13 18 -25 26 -28
8 -3 11 -12 8 -20 -3 -8 0 -20 5 -27 14 -17 -2 -42 -22 -34 -9 4 -15 3 -15 -1
5 -30 -2 -34 -23 -15 -54 49 -86 58 -215 58 -82 0 -119 3 -115 10 4 6 -1 2
-11 -8 -12 -13 -26 -18 -47 -15 -16 3 -32 0 -34 -6 -2 -6 -5 -3 -5 7 -1 10 -5
15 -11 12 -18 -11 -10 11 10 30 15 14 20 15 21 4 0 -8 5 -5 11 7 5 11 28 31
51 43 25 13 32 19 17 16 -14 -4 -36 -9 -50 -12 -14 -4 -47 -23 -75 -43 -69
-50 -80 -56 -69 -39 5 9 -1 8 -19 -4 -15 -10 -32 -15 -37 -12 -6 3 -10 -5 -10
-19 0 -14 -4 -26 -9 -26 -4 0 -7 11 -6 25 2 14 -1 23 -5 20 -5 -3 -7 -11 -4
-18 10 -26 -22 -50 -72 -54 -36 -3 -45 -1 -34 6 10 7 11 11 3 11 -8 0 -10 7
-6 18 6 15 5 15 -10 3 -9 -7 -15 -16 -13 -20 2 -3 -11 -7 -30 -8 -31 -1 -34 1
-34 27 0 22 -7 31 -29 41 -16 7 -27 17 -25 21 3 5 9 6 14 3 5 -3 11 -1 15 5 3
5 1 10 -5 10 -6 0 -10 6 -9 13 3 27 -2 47 -12 47 -5 0 -7 -5 -4 -11 4 -5 -7
-15 -24 -22 -35 -13 -40 -23 -12 -23 11 0 17 4 15 8 -3 4 -1 8 5 8 5 0 13 -5
17 -11 7 -13 -15 -31 -29 -22 -5 3 -19 -4 -31 -16 -14 -13 -23 -17 -23 -9 0 7
-4 21 -8 31 -6 13 -3 16 9 11 10 -4 16 -1 16 8 0 9 -9 14 -22 14 -15 -1 -22 4
-20 13 2 11 0 12 -11 3 -8 -7 -17 -9 -20 -5 -4 3 -7 1 -7 -5 0 -5 6 -13 13
-15 7 -3 5 -6 -5 -6 -21 -1 -23 -12 -6 -29 10 -10 10 -15 -2 -22 -9 -6 -10
-10 -3 -10 7 0 17 -9 23 -20 8 -16 8 -18 -5 -14 -19 8 -30 -19 -17 -43 7 -13
6 -24 -3 -36 -11 -15 -13 -6 -15 65 -1 46 -3 94 -4 108 -2 14 -4 30 -5 37 0 6
-8 19 -17 27 -8 9 -12 16 -8 16 4 0 -11 14 -34 31 -24 17 -46 28 -50 25 -3 -4
0 -11 8 -16 57 -35 75 -63 48 -73 -7 -2 -2 -2 12 0 14 3 22 1 18 -3 -4 -4 -3
-13 4 -21 6 -7 8 -17 4 -20 -4 -4 -12 -1 -17 7 -9 13 -10 13 -6 0 2 -8 -3 -21
-12 -28 -14 -10 -11 -11 14 -6 29 6 30 6 8 -10 -21 -15 -22 -56 -2 -56 14 0
11 -17 -6 -34 -16 -15 -45 -12 -45 6 0 5 4 6 10 3 5 -3 18 -1 27 5 12 7 13 10
3 7 -8 -2 -26 2 -39 9 -28 15 -44 9 -21 -7 11 -8 9 -9 -9 -4 -17 5 -22 4 -16
-5 5 -9 4 -11 -4 -6 -19 12 -53 -4 -46 -22 5 -13 1 -12 -17 3 -13 11 -24 20
-26 21 -1 1 0 9 4 18 3 9 11 13 17 9 6 -3 7 -1 3 5 -11 18 -36 14 -36 -5 -1
-17 -2 -17 -15 0 -7 11 -11 25 -9 31 3 7 -2 19 -11 26 -9 7 -15 8 -15 2 0 -6
6 -12 13 -15 6 -2 9 -7 6 -11 -4 -4 -26 10 -49 29 -53 45 -112 75 -142 75 -17
-1 -13 -4 15 -14 43 -16 69 -35 62 -46 -3 -4 2 -11 10 -14 13 -5 13 -8 -1 -24
-15 -18 -20 -18 -77 -4 -88 20 -238 12 -293 -16 -39 -20 -94 -74 -94 -92 0 -5
-7 -16 -16 -24 -9 -9 -11 -16 -4 -16 6 0 9 -4 6 -8 -12 -20 -4 -248 11 -327
17 -90 77 -147 177 -166 112 -23 322 21 417 86 54 38 112 128 144 225 15 44
29 80 32 80 2 0 3 -6 0 -12 -2 -7 2 -26 11 -43 15 -30 14 -30 -5 -12 -16 14
-20 15 -20 2 0 -8 5 -15 11 -15 8 0 8 -3 0 -8 -34 -22 -59 -147 -28 -135 21 8
24 -26 3 -41 -16 -11 -19 -18 -10 -33 6 -12 7 -34 1 -56 -6 -27 -4 -41 7 -54
13 -17 14 -17 8 4 -7 27 4 75 16 67 5 -3 9 0 9 5 0 6 -6 11 -12 11 -10 0 -9 3
1 9 8 5 10 14 6 21 -5 9 -4 11 3 6 12 -7 16 4 12 37 -1 10 3 24 8 30 5 7 12
24 14 39 5 25 3 26 -16 16 -18 -10 -19 -9 -9 4 7 8 9 19 5 23 -4 5 0 6 8 3 12
-4 15 1 14 21 -1 32 5 51 17 51 13 0 11 -34 -3 -48 -9 -9 -9 -12 1 -12 9 0 11
-10 6 -32 -5 -29 -4 -31 6 -13 8 12 12 51 11 100 -2 93 3 115 26 115 14 0 14
2 3 9 -11 7 -10 13 6 30 18 19 30 22 83 19 42 -2 65 -8 68 -17 3 -9 -1 -11
-16 -7 -11 4 -23 3 -26 -2 -3 -6 0 -10 7 -9 32 1 60 -4 54 -9 -3 -4 0 -13 8
-21 8 -8 14 -22 14 -31 -1 -15 -2 -15 -6 1 -2 9 -8 17 -13 17 -4 0 -6 -9 -3
-20 3 -11 9 -20 12 -20 4 0 8 -26 9 -57 2 -32 5 -71 8 -87 5 -21 3 -27 -7 -24
-8 3 -13 12 -11 22 3 18 -6 20 -28 6 -9 -6 -11 -13 -5 -17 6 -5 18 -21 27 -38
9 -16 22 -31 29 -34 9 -3 8 3 -3 21 -14 21 -14 25 -2 25 20 0 30 -47 13 -58
-11 -7 -9 -10 9 -15 15 -4 19 -10 14 -18 -11 -14 5 -76 19 -76 6 0 8 -4 5 -9
-4 -5 9 -42 27 -83 69 -152 70 -155 65 -211 -5 -62 -33 -109 -78 -129 -17 -7
-30 -20 -31 -28 0 -10 -2 -11 -6 -2 -2 6 -12 12 -20 12 -13 0 -13 -3 2 -26 13
-20 14 -28 5 -34 -9 -6 -9 -9 0 -15 7 -4 16 -2 20 5 5 8 9 3 12 -14 3 -14 1
-26 -3 -26 -5 0 -9 5 -9 11 0 5 -4 7 -10 4 -5 -3 -10 -1 -10 5 0 6 -4 8 -10 5
-5 -3 -10 -1 -10 4 0 6 -7 11 -16 11 -14 0 -14 -3 -4 -15 7 -8 9 -15 4 -15 -4
0 1 -6 11 -14 10 -7 26 -11 36 -9 13 4 20 -2 24 -20 8 -31 -2 -50 -21 -43 -8
3 -14 3 -14 0 0 -2 12 -9 26 -14 19 -8 25 -16 21 -29 -2 -10 0 -25 5 -32 8
-11 9 -10 5 3 -4 10 1 19 11 23 14 5 14 7 2 16 -13 8 -13 10 0 19 8 5 11 10 6
10 -5 0 -2 8 5 17 12 14 12 15 0 9 -8 -5 -17 -3 -22 5 -12 19 -11 89 1 89 6 0
10 -9 10 -20 0 -11 5 -20 10 -20 11 0 13 30 4 54 -3 9 -10 14 -14 11 -15 -9
-18 10 -4 23 12 11 15 10 21 -5 8 -23 50 -63 58 -55 10 10 35 11 29 1 -3 -5
-12 -9 -20 -9 -8 0 -14 -5 -14 -11 0 -6 7 -9 15 -6 8 4 17 2 20 -3 10 -16 -32
-11 -45 5 -7 9 -15 13 -18 10 -3 -3 6 -15 19 -26 24 -22 24 -22 2 -16 -13 3
-23 1 -23 -4 0 -5 11 -9 24 -9 13 0 26 -7 30 -15 6 -17 -5 -20 -20 -5 -6 6
-18 8 -28 4 -16 -6 -16 -7 0 -19 10 -7 17 -26 17 -43 0 -27 2 -28 15 -15 13
13 13 16 1 24 -12 8 -12 10 1 19 8 5 17 10 20 10 8 0 4 -55 -4 -68 -4 -7 -2
-12 4 -12 6 0 9 -14 7 -35 -4 -43 -13 -53 -22 -26 -3 12 -11 21 -16 21 -6 0
-8 -4 -5 -8 3 -5 6 -27 7 -50 2 -23 7 -42 11 -42 4 0 8 -9 8 -20 0 -11 -4 -20
-10 -20 -5 0 -10 -7 -10 -15 0 -19 -14 -19 -34 1 -24 23 -19 35 12 28 26 -6
26 -6 7 9 -37 28 -53 2 -57 -91 -1 -24 -5 -45 -10 -49 -15 -8 -3 134 11 151 8
9 25 16 38 16 24 0 24 1 18 63 -3 34 -8 80 -9 102 -4 45 -19 50 -24 8 -2 -15
-9 -34 -14 -41 -8 -9 -7 -11 6 -6 12 5 16 0 16 -19 0 -36 -17 -77 -32 -77 -7
0 -19 -10 -27 -22 -12 -19 -14 -20 -23 -5 -5 10 -6 21 -3 27 3 5 -7 10 -22 10
-15 0 -44 1 -63 2 -42 1 -81 -5 -98 -16 -7 -4 -24 -1 -38 8 -18 12 -29 14 -43
6 -11 -5 -31 -10 -45 -10 -18 0 -24 -4 -20 -14 11 -27 -17 -27 -44 1 -26 25
-28 34 -25 86 1 33 -1 57 -7 57 -6 0 -10 -10 -11 -22 -2 -52 -7 -70 -27 -98
-12 -16 -22 -32 -22 -35 0 -3 18 -5 39 -5 36 0 40 -3 50 -32 5 -18 11 -67 13
-109 3 -63 1 -76 -11 -71 -9 3 -12 1 -7 -6 4 -7 4 -12 -1 -13 -4 0 -17 -2 -28
-5 -11 -2 -30 1 -42 7 -18 10 -22 23 -28 96 -5 52 -4 93 3 107 7 15 7 28 -1
42 -15 29 -17 30 -28 14 -8 -13 -11 -12 -20 4 -6 10 -20 27 -30 37 -16 16 -17
23 -8 46 16 41 37 145 27 135 -8 -8 -15 -33 -22 -77 -5 -29 -28 -77 -48 -97
-16 -16 -17 -16 -22 0 -13 42 -16 83 -6 77 5 -3 10 -4 10 -1 0 2 2 11 5 19 4
8 0 14 -9 14 -8 0 -13 -4 -10 -9 3 -4 0 -8 -5 -8 -6 0 -11 10 -11 21 0 17 4
20 23 16 20 -6 21 -5 4 7 -15 11 -15 15 -3 19 8 3 17 1 20 -6 3 -7 3 -1 -1 13
-3 14 -6 37 -6 53 -1 15 -4 27 -9 27 -15 0 -9 98 7 114 17 17 20 30 5 21 -5
-3 -10 -5 -10 -3 -1 2 -3 30 -7 63 -3 33 -7 62 -9 64 -2 3 8 13 23 23 16 10
23 18 18 18 -6 0 -16 -5 -23 -12 -12 -12 -17 -2 -13 29 1 6 -3 14 -8 18 -12 7
7 55 21 55 4 0 7 3 7 8 -3 18 2 22 15 10 11 -11 11 -15 -3 -26 -9 -7 -10 -10
-2 -6 7 3 18 0 23 -7 8 -11 9 -11 5 3 -7 22 3 30 20 17 19 -16 17 3 -4 40 -17
30 -33 40 -33 22 0 -4 -11 -6 -25 -3 -15 2 -25 0 -25 -7 0 -7 4 -9 10 -6 6 3
7 -1 4 -9 -8 -20 -24 -21 -24 -1 0 16 -12 20 -23 8 -4 -3 1 -11 10 -18 11 -8
13 -14 5 -19 -7 -4 -12 -2 -12 3 0 6 -5 11 -10 11 -6 0 -5 -8 2 -20 11 -18 14
-18 24 -5 17 24 25 18 12 -10 -12 -26 -23 -31 -33 -15 -3 6 -12 10 -18 10 -7
0 0 -8 16 -18 15 -9 27 -24 27 -34 0 -13 -8 -8 -33 17 -28 29 -40 34 -82 35
-28 1 -63 -1 -79 -3 -34 -5 -113 20 -169 53 -21 12 -41 20 -44 16 -3 -3 2 -8
11 -12 9 -3 13 -10 10 -15 -3 -5 1 -6 9 -3 8 3 21 -3 28 -14 8 -10 23 -24 34
-30 17 -10 12 -11 -25 -6 -29 3 -51 12 -60 25 -15 18 -15 18 -14 -17 2 -26 -2
-34 -11 -30 -9 3 -12 0 -8 -10 6 -16 -13 -19 -23 -3 -4 7 -10 7 -16 1 -13 -13
-39 -4 -55 17 -6 9 -15 12 -20 8 -4 -5 0 -14 10 -21 18 -14 23 -36 9 -36 -12
0 -36 52 -33 70 2 8 0 12 -4 8 -4 -4 -20 -1 -35 7 -22 11 -29 12 -33 2 -2 -6
-8 -8 -13 -4 -13 13 18 27 45 20 22 -5 23 -4 10 9 -7 9 -20 13 -28 10 -10 -4
-12 -1 -6 8 5 8 4 11 -3 7 -5 -4 -21 -3 -34 2 -19 8 -20 10 -4 10 18 1 18 2
-2 20 -12 10 -19 21 -15 25 3 3 1 6 -6 6 -8 0 -11 -8 -8 -20 3 -11 1 -23 -4
-26 -5 -3 -5 -14 2 -27 7 -16 3 -13 -15 8 -14 16 -22 32 -19 35 3 3 8 -1 10
-8 3 -6 9 -9 14 -6 7 4 7 10 0 17 -9 12 -11 18 -11 38 0 6 -7 9 -15 5 -12 -4
-15 3 -15 34 0 36 3 41 38 55 20 9 54 33 76 53 35 34 38 35 32 12 -6 -21 -5
-22 4 -7 6 9 9 21 6 25 -3 5 2 31 10 58 12 41 13 67 3 163 -10 110 -6 188 11
222 5 8 27 37 48 63 60 73 75 133 68 269 -4 62 -9 157 -12 212 -4 60 -12 107
-20 120 -8 10 -14 15 -14 9 0 -6 3 -14 8 -18 4 -4 7 -39 8 -77 0 -52 -3 -69
-12 -65 -7 3 -15 -2 -18 -10 -3 -8 -2 -13 3 -9 13 8 7 -23 -7 -37 -8 -8 -12
-9 -12 -1 0 6 6 14 13 17 6 3 2 3 -10 0 -22 -5 -32 9 -15 20 5 3 9 19 10 36 0
22 -4 30 -16 30 -14 0 -15 -2 -3 -9 12 -8 12 -12 2 -25 -11 -13 -11 -16 0 -17
10 0 11 -2 2 -6 -7 -2 -13 -11 -13 -19 0 -9 -4 -13 -9 -10 -5 3 -7 16 -3 28 4
15 2 19 -7 13 -7 -4 -11 -16 -8 -26 8 -29 -14 -35 -34 -10 -11 13 -20 17 -24
11 -3 -6 -11 -8 -16 -4 -5 3 -7 9 -4 14 3 5 -7 21 -21 37 l-27 28 5 -27 c3
-16 -1 -35 -9 -45 -12 -16 -13 -11 -8 37 19 161 61 289 133 409 199 329 535
540 938 591 87 11 297 3 390 -15z m740 -467 c-18 -10 -39 -2 -31 12 3 4 15 6
26 3 19 -5 19 -7 5 -15z m94 -257 c0 -5 -7 -11 -14 -14 -10 -4 -13 -1 -9 9 6
15 23 19 23 5z m-102 -56 c-3 -3 -9 2 -12 12 -6 14 -5 15 5 6 7 -7 10 -15 7
-18z m32 -45 c0 -5 -2 -10 -4 -10 -3 0 -8 5 -11 10 -3 6 -1 10 4 10 6 0 11 -4
11 -10z m50 -9 c0 -5 -7 -12 -16 -15 -14 -5 -15 -4 -4 9 14 17 20 19 20 6z
m-2228 -186 c3 -14 11 -19 28 -17 20 2 22 0 10 -8 -13 -9 -13 -11 0 -20 8 -5
11 -10 7 -10 -4 0 -3 -10 4 -21 6 -12 7 -19 1 -15 -5 3 -12 -4 -15 -16 -4 -13
-1 -26 6 -30 9 -6 9 -8 0 -8 -19 0 -23 15 -13 49 7 27 6 31 -10 31 -21 0 -50
25 -50 43 0 6 7 1 16 -11 8 -12 20 -22 26 -22 6 0 5 7 -4 18 -15 17 -32 81
-18 65 5 -4 10 -17 12 -28z m-45 -47 c-3 -8 -6 -5 -6 6 -1 11 2 17 5 13 3 -3
4 -12 1 -19z m171 -9 c3 -11 2 -12 -6 0 -7 9 -12 10 -16 2 -4 -6 -12 -11 -18
-11 -6 0 -6 6 2 15 15 18 32 15 38 -6z m-127 -34 c15 10 10 -2 -8 -16 -11 -10
-14 -10 -9 -1 4 6 3 12 -3 12 -6 0 -7 8 -3 18 6 16 7 16 10 -1 2 -9 8 -15 13
-12z m93 -23 c3 -5 -1 -9 -9 -9 -8 0 -12 4 -9 9 3 4 7 8 9 8 2 0 6 -4 9 -8z
m-131 -32 c-3 -11 -7 -20 -9 -20 -2 0 -4 9 -4 20 0 11 4 20 9 20 5 0 7 -9 4
-20z m0 -65 c-7 -21 -13 -19 -13 6 0 11 4 18 10 14 5 -3 7 -12 3 -20z m42 5
c3 -5 1 -10 -4 -10 -6 0 -11 5 -11 10 0 6 2 10 4 10 3 0 8 -4 11 -10z m-42
-50 c3 -11 1 -23 -4 -26 -5 -3 -9 6 -9 20 0 31 6 34 13 6z m144 4 c-3 -3 -12
-4 -19 -1 -8 3 -5 6 6 6 11 1 17 -2 13 -5z m1010 -181 c-4 -3 -2 -12 5 -20 20
-24 3 -22 -21 3 l-23 24 23 0 c12 0 19 -3 16 -7z m1087 -20 c32 -40 45 -66 45
-88 0 -14 -2 -16 -6 -5 -18 51 -37 80 -48 76 -18 -7 -50 19 -41 32 11 19 26
14 50 -15z m-1020 -24 c-3 -6 0 -16 7 -21 11 -8 10 -9 -3 -5 -9 3 -19 1 -22
-6 -3 -7 -5 -6 -5 4 -1 8 4 20 11 27 15 15 21 16 12 1z m77 -6 c10 -11 10 -14
2 -9 -7 4 -13 2 -13 -3 0 -6 5 -11 12 -11 6 0 9 -2 6 -5 -3 -3 -13 -3 -22 1
-12 4 -14 10 -6 19 5 6 7 15 3 18 -3 4 -4 7 -1 7 3 0 12 -8 19 -17z m922 -40
c-7 -17 -19 -17 -26 1 -7 18 14 40 24 24 4 -6 5 -17 2 -25z m-1038 7 c16 -17
16 -20 3 -15 -9 4 -19 13 -22 21 -7 19 -2 18 19 -6z m1000 -11 c11 -17 -1 -21
-15 -4 -8 9 -8 15 -2 15 6 0 14 -5 17 -11z m-1041 -15 c3 -8 2 -12 -4 -9 -6 3
-10 10 -10 16 0 14 7 11 14 -7z m1111 6 c-3 -5 -11 -10 -16 -10 -6 0 -7 5 -4
10 3 6 11 10 16 10 6 0 7 -4 4 -10z m-1285 -35 c0 -2 -7 -1 -17 2 -12 5 -14 3
-8 -8 5 -8 4 -11 0 -6 -5 4 -10 14 -11 22 -2 12 2 12 17 5 10 -6 19 -13 19
-15z m1325 -5 c3 -5 1 -10 -4 -10 -6 0 -11 5 -11 10 0 6 2 10 4 10 3 0 8 -4
11 -10z m-1304 -28 c-7 -2 -18 1 -23 6 -8 8 -4 9 13 5 13 -4 18 -8 10 -11z
m1209 -23 c0 -6 -4 -7 -10 -4 -5 3 -10 11 -10 16 0 6 5 7 10 4 6 -3 10 -11 10
-16z m-3 -101 c-2 -18 -4 -6 -4 27 0 33 2 48 4 33 2 -15 2 -42 0 -60z m79 7
c-9 -9 -16 -13 -16 -8 0 12 22 34 28 28 2 -2 -3 -11 -12 -20z m11 -37 c-3 -7
-5 -2 -5 12 0 14 2 19 5 13 2 -7 2 -19 0 -25z m-1211 -4 c-4 -9 -9 -15 -11
-12 -3 3 -3 13 1 22 4 9 9 15 11 12 3 -3 3 -13 -1 -22z m1181 -16 c-3 -8 -6
-5 -6 6 -1 11 2 17 5 13 3 -3 4 -12 1 -19z m-807 -60 c7 -23 29 -67 50 -98 25
-37 35 -61 29 -67 -11 -11 -2 -43 13 -43 6 0 8 9 5 20 -6 24 6 26 24 4 47 -57
255 -112 374 -100 144 15 219 83 232 212 3 30 9 54 13 54 4 0 3 -27 -2 -61 -5
-38 -4 -67 2 -79 15 -27 8 -82 -12 -101 -10 -9 -18 -21 -18 -28 0 -6 -5 -11
-11 -11 -7 0 -23 -12 -36 -26 -22 -24 -25 -25 -42 -10 -10 9 -22 16 -27 16 -4
0 2 -7 14 -16 12 -8 19 -20 16 -26 -4 -6 -10 -5 -15 3 -7 11 -9 10 -9 -5 0
-12 -5 -16 -15 -12 -8 3 -14 0 -12 -6 5 -24 -100 -38 -206 -28 -44 4 -77 3
-85 -3 -9 -7 -11 -6 -6 7 4 12 1 16 -14 16 -12 0 -33 5 -47 12 -19 9 -24 16
-19 32 6 20 5 20 -11 -1 -16 -23 -45 -31 -45 -13 0 6 7 10 16 10 10 0 14 5 10
15 -3 8 -9 22 -12 30 -4 9 -1 15 7 15 10 1 9 4 -3 11 -11 6 -15 16 -11 26 5
13 1 12 -17 -5 -26 -24 -26 -24 -55 -12 -18 8 -18 9 -2 9 10 1 16 5 12 10 -3
6 6 8 20 5 25 -4 26 0 16 44 -1 2 -9 -4 -18 -14 -16 -16 -18 -15 -27 5 -5 11
-13 21 -18 21 -5 0 -7 4 -3 9 3 5 1 12 -5 16 -5 3 -7 18 -4 33 5 22 4 25 -7
15 -7 -7 -20 -13 -28 -13 -10 0 -8 5 8 17 22 15 22 17 8 28 -24 17 -60 125
-42 125 2 0 9 -19 15 -42z m750 17 c0 -8 -4 -15 -10 -15 -5 0 -10 7 -10 15 0
8 5 15 10 15 6 0 10 -7 10 -15z m-1160 -17 c0 -7 -7 -26 -15 -42 -14 -27 -14
-28 4 -23 14 3 19 0 18 -14 -1 -15 -4 -16 -16 -6 -12 10 -14 9 -7 -7 7 -19 6
-19 -14 -1 -25 23 -26 47 -1 64 11 8 17 20 14 28 -3 7 0 13 6 13 6 0 11 -6 11
-12z m1325 -158 c10 -11 14 -20 9 -20 -5 0 -15 9 -22 20 -7 11 -11 20 -9 20 2
0 12 -9 22 -20z m-881 -66 c3 -8 2 -12 -4 -9 -6 3 -10 10 -10 16 0 14 7 11 14
-7z m31 -4 c3 -5 1 -10 -4 -10 -6 0 -11 5 -11 10 0 6 2 10 4 10 3 0 8 -4 11
-10z m689 -49 c-15 -23 -30 -41 -35 -41 -4 0 7 22 24 48 18 27 33 45 35 41 2
-4 -9 -26 -24 -48z m-713 -8 c13 -16 12 -17 -3 -4 -10 7 -18 15 -18 17 0 8 8
3 21 -13z m99 -7 c-13 -13 -13 -29 0 -21 6 3 10 1 10 -5 0 -7 -8 -9 -20 -5
-13 4 -20 2 -20 -6 0 -7 -2 -10 -5 -7 -9 8 18 55 32 55 9 0 10 -4 3 -11z
m-1600 -6 c0 -5 -2 -10 -4 -10 -3 0 -8 5 -11 10 -3 6 -1 10 4 10 6 0 11 -4 11
-10z m2156 -49 c-16 -17 -16 -20 0 -35 9 -9 19 -14 23 -10 3 4 0 9 -6 11 -7 3
-13 10 -13 16 1 7 9 2 19 -10 20 -23 41 -30 41 -14 0 5 -6 12 -12 14 -13 5 25
11 49 8 6 -1 14 3 18 9 9 15 22 12 22 -4 0 -8 -3 -15 -6 -14 -20 2 -31 -4 -28
-14 1 -7 -3 -12 -10 -11 -7 2 -10 -4 -7 -12 4 -9 0 -15 -10 -15 -9 0 -16 -4
-16 -9 0 -4 -17 -7 -37 -6 -54 4 -55 4 -47 17 5 8 2 9 -10 5 -10 -4 -15 -3
-11 3 9 14 -29 12 -43 -2 -9 -9 -12 -8 -12 6 0 9 4 15 9 11 5 -3 12 3 16 12 5
17 60 60 79 62 5 1 1 -7 -8 -18z m174 5 c0 -3 -4 -8 -10 -11 -5 -3 -10 -1 -10
4 0 6 5 11 10 11 6 0 10 -2 10 -4z m-820 -49 c-8 -9 -10 -8 -4 6 5 14 2 16
-12 10 -16 -6 -17 -5 -4 9 13 14 16 14 24 1 5 -9 4 -19 -4 -26z m50 19 c-7 -7
-14 -6 -21 1 -9 9 -7 12 9 10 14 -1 18 -5 12 -11z m-1498 -13 c-6 -2 -9 -10
-6 -15 4 -7 2 -8 -5 -4 -13 9 -5 26 12 25 9 0 8 -2 -1 -6z m1578 -7 c0 -23
-16 -27 -17 -5 -1 10 2 19 8 19 5 0 9 -6 9 -14z m-101 -12 c-11 -14 -10 -18 6
-30 23 -17 12 -19 -14 -2 -15 9 -17 16 -10 30 5 10 15 18 21 18 6 0 5 -6 -3
-16z m62 2 c5 3 9 -2 9 -10 0 -8 -4 -18 -10 -21 -5 -3 -10 -2 -10 4 0 5 -2 15
-3 23 -2 7 -2 10 0 5 3 -4 9 -5 14 -1z m74 -16 c3 -6 -1 -7 -9 -4 -18 7 -21
14 -7 14 6 0 13 -4 16 -10z m72 -20 c-14 -11 -29 -20 -34 -20 -10 1 39 39 51
40 5 0 -3 -9 -17 -20z m-1643 -30 c-6 -5 -24 21 -24 34 0 6 6 1 14 -10 8 -10
12 -21 10 -24z m1488 2 c-7 -2 -12 -11 -12 -19 0 -9 -6 -13 -14 -10 -8 3 -17
1 -19 -6 -3 -9 -8 -9 -18 1 -12 11 -12 13 1 10 10 -2 14 4 13 17 -1 11 0 15 3
8 3 -7 12 -9 20 -6 7 3 11 9 8 14 -3 5 3 6 12 2 11 -4 13 -8 6 -11z m-1417
-11 c3 -5 2 -12 -3 -15 -5 -3 -9 1 -9 9 0 17 3 19 12 6z m192 -65 c16 -8 23
-15 18 -16 -18 0 -56 31 -64 53 -7 20 -8 19 -13 -6 -3 -14 -2 -24 3 -22 4 3
11 0 14 -6 5 -7 0 -10 -11 -7 -21 4 -26 32 -10 63 9 19 10 18 23 -12 7 -18 25
-39 40 -47z m-234 43 c-8 -8 -13 -7 -18 2 -5 8 -4 10 3 5 7 -4 12 -2 12 5 0 7
3 9 7 6 4 -4 2 -12 -4 -18z m117 0 c0 -6 -4 -7 -10 -4 -5 3 -10 11 -10 16 0 6
5 7 10 4 6 -3 10 -11 10 -16z m177 5 c-3 -3 -12 -4 -19 -1 -8 3 -5 6 6 6 11 1
17 -2 13 -5z m-207 -14 c0 -5 -4 -10 -10 -10 -5 0 -10 5 -10 10 0 6 5 10 10
10 6 0 10 -4 10 -10z m167 -4 c0 -8 -8 -11 -20 -8 -14 4 -16 7 -5 13 19 12 25
11 25 -5z m-217 -60 c0 -12 -14 5 -31 39 -8 16 -6 15 10 -4 12 -13 21 -28 21
-35z m1380 44 c0 -5 -5 -10 -11 -10 -5 0 -7 5 -4 10 3 6 8 10 11 10 2 0 4 -4
4 -10z m-816 -16 c3 -8 2 -12 -4 -9 -6 3 -10 10 -10 16 0 14 7 11 14 -7z
m1271 -2 c-3 -3 -11 0 -18 7 -9 10 -8 11 6 5 10 -3 15 -9 12 -12z m-326 -25
c0 -21 -1 -21 -9 -2 -12 28 -12 37 0 30 6 -3 10 -16 9 -28z m-1239 19 c0 -3
-4 -8 -10 -11 -5 -3 -10 -1 -10 4 0 6 5 11 10 11 6 0 10 -2 10 -4z m-80 -20
c0 -2 -7 -6 -15 -10 -8 -3 -15 -1 -15 4 0 6 7 10 15 10 8 0 15 -2 15 -4z
m-151 -27 c-15 -9 -32 -2 -24 11 3 5 13 6 21 3 12 -4 13 -8 3 -14z m1426 11
c-3 -5 -12 -10 -18 -10 -7 0 -6 4 3 10 19 12 23 12 15 0z m-1385 -24 c0 -2 -9
-6 -20 -9 -11 -3 -18 -1 -14 4 5 9 34 13 34 5z m3860 -80 c0 -2 -8 -10 -17
-17 -16 -13 -17 -12 -4 4 13 16 21 21 21 13z m-2580 -56 c-8 -5 -17 -7 -19 -4
-3 3 1 9 9 14 8 5 17 7 19 4 3 -3 -1 -9 -9 -14z m41 -3 c-10 -9 -11 -8 -5 6 3
10 9 15 12 12 3 -3 0 -11 -7 -18z m19 -21 c0 -3 -4 -8 -10 -11 -5 -3 -10 -1
-10 4 0 6 5 11 10 11 6 0 10 -2 10 -4z m-834 -57 c1 -16 -2 -29 -7 -29 -5 0
-9 17 -9 37 0 42 14 36 16 -8z m824 21 c0 -5 -2 -10 -4 -10 -3 0 -8 5 -11 10
-3 6 -1 10 4 10 6 0 11 -4 11 -10z m24 -145 c3 -44 3 -73 -1 -65 -9 22 -26 30
-36 17 -6 -8 -7 -7 -4 3 2 8 0 23 -4 32 -10 18 5 35 16 18 13 -21 21 -9 17 25
-3 24 -10 35 -21 36 -10 0 -11 2 -3 6 6 2 12 12 12 21 1 15 2 15 9 2 5 -8 12
-51 15 -95z m2376 102 c0 -2 -10 -12 -22 -23 l-23 -19 19 23 c18 21 26 27 26
19z m-3265 -36 c-3 -6 -11 -11 -16 -11 -5 0 -4 6 3 14 14 16 24 13 13 -3z
m715 -1 c0 -5 -5 -10 -11 -10 -5 0 -7 5 -4 10 3 6 8 10 11 10 2 0 4 -4 4 -10z
m216 -58 c-11 -10 -15 4 -8 28 l7 25 3 -23 c2 -13 1 -26 -2 -30z m-930 -19
c-7 -7 -26 7 -26 19 0 6 6 6 15 -2 9 -7 13 -15 11 -17z m934 -21 c0 -15 -2
-15 -10 -2 -13 20 -13 33 0 25 6 -3 10 -14 10 -23z m-960 -12 c-7 -14 -8 -20
0 -20 10 0 9 -9 -6 -85 -4 -16 -7 -36 -7 -42 -1 -17 -10 -7 -14 15 -13 59 -11
90 7 120 21 35 37 44 20 12z m1000 6 c0 -2 -7 -7 -16 -10 -8 -3 -12 -2 -9 4 6
10 25 14 25 6z m-1240 -48 c0 -19 -2 -20 -10 -8 -13 19 -13 30 0 30 6 0 10
-10 10 -22z m310 -109 c0 -21 -4 -39 -10 -39 -5 0 -10 5 -10 10 0 6 -4 10 -10
10 -17 0 -11 -22 8 -27 25 -6 26 -43 1 -43 -10 0 -20 5 -20 10 -2 14 -5 22
-14 43 -8 20 -1 129 10 147 11 18 45 -66 45 -111z m820 111 c0 -5 -2 -10 -4
-10 -3 0 -8 5 -11 10 -3 6 -1 10 4 10 6 0 11 -4 11 -10z m-780 -29 c0 -21 16
-37 22 -22 1 5 14 7 28 4 25 -4 25 -6 26 -109 0 -86 -2 -104 -14 -99 -7 3 -20
5 -29 5 -10 0 -13 6 -9 17 4 10 4 14 0 10 -4 -4 -13 -2 -21 4 -9 8 -13 38 -13
98 0 59 -3 81 -10 71 -8 -12 -10 -9 -10 13 0 17 5 27 15 27 8 0 15 -9 15 -19z
m1196 -87 c-14 -90 -52 -234 -62 -234 -6 0 1 31 25 115 10 39 25 105 32 148 6
43 14 76 16 73 2 -2 -3 -48 -11 -102z m-366 71 c0 -7 7 -15 15 -19 10 -3 15
-17 14 -38 l-2 -33 -7 35 c-4 19 -8 31 -9 26 0 -6 -7 -2 -14 8 -12 17 -14 17
-27 1 -8 -9 -13 -30 -12 -46 1 -16 -2 -29 -8 -29 -19 0 -10 65 12 92 21 27 38
29 38 3z m104 17 c3 -5 -1 -9 -9 -9 -8 0 -12 4 -9 9 3 4 7 8 9 8 2 0 6 -4 9
-8z m-1268 -70 c10 -76 40 -195 57 -227 9 -16 23 -48 33 -69 9 -22 25 -49 36
-60 10 -12 14 -22 8 -24 -21 -7 -9 -19 19 -20 22 0 28 3 24 14 -3 8 -9 14 -14
14 -4 0 -5 8 -2 17 5 12 2 15 -10 10 -9 -3 -17 -2 -17 3 0 12 37 13 44 2 11
-19 16 -72 6 -72 -5 0 -10 -9 -10 -20 0 -11 6 -20 14 -20 8 0 17 -6 20 -12 3
-7 4 10 1 39 -6 58 -31 126 -44 119 -4 -3 -6 6 -3 20 3 15 -1 29 -8 34 -9 5
-9 9 -1 14 6 4 11 2 11 -4 0 -8 6 -8 21 0 17 10 21 8 26 -9 3 -12 9 -21 14
-21 5 0 12 0 17 -1 10 -1 31 -41 32 -62 0 -15 2 -16 13 -5 24 24 27 47 8 53
-13 4 -20 19 -25 52 -11 79 -9 88 19 89 21 2 24 -1 14 -13 -10 -11 -10 -13 1
-11 8 2 15 -4 16 -12 1 -8 8 -54 14 -103 14 -100 31 -121 69 -86 11 11 21 15
21 9 0 -5 5 -10 11 -10 8 0 7 5 -1 15 -7 9 -19 14 -26 11 -17 -6 -26 8 -35 54
-6 34 -7 34 -8 5 0 -16 3 -37 8 -45 6 -8 7 -18 4 -23 -11 -19 -23 20 -23 79 0
56 2 62 23 66 29 6 49 -1 41 -13 -3 -5 2 -12 10 -15 9 -3 14 -10 11 -14 -3 -5
-1 -28 4 -52 24 -104 23 -105 -8 -116 -16 -6 -33 -7 -37 -4 -4 4 -5 -3 -2 -14
7 -29 -35 -55 -55 -34 -8 8 -8 11 0 6 13 -7 43 2 43 15 0 4 -7 6 -15 3 -9 -4
-28 6 -46 24 -26 26 -29 33 -20 51 7 12 16 21 20 21 5 0 7 9 4 20 -5 17 -7 17
-29 -9 -14 -17 -22 -36 -18 -45 4 -9 1 -16 -6 -16 -8 0 -10 10 -7 27 5 26 4
27 -10 8 -14 -20 -15 -20 -11 0 2 11 8 23 13 27 6 4 -2 19 -19 35 -23 23 -27
24 -22 8 10 -27 18 -84 10 -65 -32 72 -42 100 -34 95 6 -3 10 1 10 9 0 10 -6
13 -15 10 -18 -7 -18 -14 -4 -51 6 -15 15 -37 19 -48 4 -11 12 -32 18 -46 5
-14 8 -46 5 -72 -4 -31 -2 -47 6 -47 6 0 11 6 11 13 0 6 5 4 11 -6 5 -9 7 -22
3 -29 -4 -7 -3 -8 4 -4 8 5 12 0 12 -13 0 -15 -4 -19 -17 -14 -16 6 -16 5 -4
-11 13 -16 16 -16 26 -3 8 11 16 13 29 5 10 -6 25 -11 34 -12 10 -2 17 -8 17
-14 0 -6 4 -14 9 -19 5 -4 6 -3 3 3 -4 7 -1 14 7 17 16 6 10 51 -10 67 -14 12
-8 44 7 35 4 -3 5 -13 2 -22 -4 -11 -3 -14 5 -9 7 4 12 4 13 -1 0 -4 2 -19 5
-32 2 -13 -1 -30 -7 -37 -13 -16 -3 -34 19 -33 11 0 12 3 5 6 -18 7 -16 33 3
33 8 0 13 -4 10 -9 -11 -17 12 -61 29 -55 12 5 13 9 4 20 -8 10 -8 14 0 14 6
0 12 -4 12 -10 1 -5 2 -14 3 -19 2 -17 16 -25 16 -9 0 11 7 14 25 10 14 -2 22
-8 19 -13 -3 -5 -1 -9 4 -9 17 0 21 12 10 35 -9 19 -7 29 11 51 23 29 28 58 9
52 -7 -3 -18 5 -23 16 -6 12 -17 22 -25 22 -8 1 -22 2 -31 3 -8 0 -24 8 -35
16 -16 13 -16 14 -1 9 19 -7 24 11 5 20 -10 3 -9 8 4 18 19 17 35 68 20 68 -8
0 -32 71 -32 95 0 10 70 36 80 30 4 -3 11 1 14 7 3 7 3 0 0 -17 -4 -20 -3 -26
4 -17 7 10 11 2 16 -29 9 -57 47 -144 56 -129 4 7 1 30 -8 51 -12 32 -13 43
-2 69 13 31 50 43 50 16 0 -8 5 -18 11 -22 8 -4 9 0 4 15 -4 15 -2 21 9 21 8
0 18 -4 21 -10 3 -5 11 -10 17 -10 6 0 5 7 -3 17 -12 14 -12 16 1 11 17 -5 25
-32 16 -55 -5 -13 -9 -13 -24 -2 -15 12 -16 12 -6 -1 7 -9 8 -23 3 -35 -5 -14
-8 -16 -9 -5 -2 8 -2 18 -1 23 1 10 -11 9 -29 -3 -10 -6 -11 -10 -2 -10 6 0
12 -5 12 -11 0 -5 -4 -7 -10 -4 -5 3 -10 2 -10 -4 0 -5 -8 -11 -17 -14 -15 -3
-14 -6 7 -14 21 -9 28 -5 57 25 18 19 36 32 40 29 3 -4 -8 -20 -26 -36 -17
-16 -31 -32 -31 -35 0 -13 27 -5 48 14 22 21 36 13 26 -15 -4 -9 -12 -14 -19
-11 -8 3 -15 -1 -18 -7 -3 -8 6 -12 24 -12 22 0 28 4 23 17 -2 9 0 19 6 23 5
3 10 2 10 -2 0 -5 10 -13 22 -18 44 -20 30 -32 -42 -34 -76 -2 -114 5 -105 20
8 12 -6 11 -25 -1 -10 -6 -11 -10 -2 -10 6 0 12 -4 12 -10 0 -25 -51 11 -63
45 -4 10 -10 15 -14 12 -3 -4 -13 -1 -20 5 -12 9 -14 9 -13 -3 4 -28 0 -38
-15 -33 -8 4 -12 10 -9 15 3 5 0 9 -5 9 -6 0 -11 -5 -11 -10 0 -6 -5 -9 -11
-8 -6 2 -13 -2 -16 -8 -7 -19 64 -10 88 11 l22 20 -5 -22 c-3 -12 -3 -22 1
-21 25 3 27 -5 6 -28 -30 -32 -31 -44 -5 -44 17 0 18 -3 10 -26 -6 -14 -7 -31
-3 -37 3 -7 3 -9 -2 -5 -11 10 -34 -23 -28 -39 3 -7 12 -13 19 -13 8 0 17 -6
20 -13 3 -8 11 -14 19 -14 13 0 12 3 -2 19 -9 10 -11 18 -5 18 6 0 14 -5 18
-11 4 -8 9 -7 15 2 6 10 9 11 9 2 0 -18 25 -16 40 2 9 11 9 15 1 15 -7 0 -9 5
-6 10 12 19 25 -1 20 -28 -3 -15 -2 -21 1 -14 3 6 10 12 15 12 6 0 6 -8 -1
-19 -7 -14 -7 -22 2 -27 7 -5 8 -3 3 6 -6 10 -4 12 8 7 12 -5 17 -1 17 13 0
20 17 36 28 25 3 -3 0 -10 -8 -15 -13 -8 -12 -10 3 -10 11 0 17 8 17 23 0 17
2 19 9 7 6 -8 7 -19 3 -25 -4 -5 -7 -16 -7 -24 0 -8 -6 -15 -13 -17 -7 -1 -8
0 -2 3 13 6 13 23 1 23 -16 0 -24 -41 -11 -54 10 -8 11 -8 6 2 -6 11 5 17 27
13 4 0 7 4 7 9 0 6 5 10 10 10 7 0 7 -7 0 -21 -6 -11 -9 -25 -6 -32 2 -7 5 -5
5 4 1 19 28 45 37 36 4 -3 -1 -14 -11 -23 -16 -16 -16 -18 0 -27 9 -5 20 -6
23 -2 4 4 1 10 -5 12 -10 3 -9 9 3 20 8 9 13 22 10 30 -3 8 -1 11 4 8 5 -3 7
-19 3 -35 -4 -20 -1 -30 7 -30 7 0 10 7 6 16 -3 8 -2 12 4 9 6 -3 10 2 10 12
0 11 3 14 8 7 4 -6 15 -13 24 -17 11 -4 15 -12 12 -22 -6 -14 -8 -13 -19 2 -8
10 -16 15 -20 11 -3 -3 2 -16 12 -27 28 -34 25 -58 -9 -65 -22 -4 -29 -10 -24
-21 5 -14 2 -14 -24 1 -16 10 -27 20 -25 23 6 10 -103 3 -123 -8 -12 -6 -24
-11 -29 -11 -4 1 5 8 20 16 16 9 26 18 23 22 -8 7 -80 -33 -125 -69 -19 -16
-37 -26 -40 -23 -3 3 3 12 13 20 11 8 15 14 9 14 -7 0 -18 -6 -25 -13 -11 -10
-16 -10 -30 4 -9 10 -14 20 -10 23 9 10 -31 34 -48 29 -10 -3 -10 -1 3 7 9 6
17 16 17 22 0 7 -5 6 -14 -1 -12 -10 -18 -6 -32 21 -10 18 -17 36 -16 40 1 4
-4 5 -11 3 -6 -3 -30 11 -52 30 -30 26 -37 37 -27 43 11 7 9 10 -7 15 -12 3
-19 1 -15 -4 3 -5 0 -9 -5 -9 -6 0 -11 7 -11 16 0 10 -6 14 -14 11 -7 -3 -29
12 -50 35 -32 34 -35 42 -24 56 11 15 9 14 -14 -1 -16 -10 -28 -13 -28 -7 0 6
-5 8 -12 4 -7 -5 -9 -2 -6 7 3 8 0 23 -8 33 -7 11 -11 23 -7 29 3 6 1 7 -5 3
-7 -4 -19 -3 -28 2 -11 6 -13 11 -5 16 6 4 11 2 11 -4 0 -6 5 -8 10 -5 15 9
-7 35 -24 29 -13 -5 -37 57 -32 79 2 7 1 9 -1 5 -11 -19 -48 44 -44 75 1 9 -2
17 -8 17 -6 0 -8 -8 -5 -17 5 -15 3 -15 -10 2 -15 18 -15 20 1 26 10 3 25 4
33 1 13 -5 13 -4 0 10 -11 11 -20 13 -32 7 -12 -6 -18 -6 -18 1 0 5 7 10 16
10 11 0 14 6 9 21 -4 12 -9 37 -10 55 -2 18 -6 42 -10 53 -3 10 -7 32 -10 47
-2 16 -7 44 -11 63 -5 24 -4 32 4 27 6 -3 14 -28 18 -54z m759 48 c3 -5 1 -10
-4 -10 -6 0 -11 5 -11 10 0 6 2 10 4 10 3 0 8 -4 11 -10z m-58 -8 c6 -4 17
-20 22 -35 14 -35 14 -197 1 -217 -8 -12 -10 -10 -10 9 0 24 -1 24 -14 5 -9
-12 -11 -21 -4 -25 6 -4 -2 -6 -17 -6 -16 0 -22 3 -15 7 9 6 9 9 -1 16 -7 4
-14 3 -17 -4 -6 -18 -39 -15 -46 4 -3 9 -6 59 -6 112 0 85 3 98 22 119 21 23
62 30 85 15z m199 -13 c19 -15 20 -149 2 -150 -10 0 -10 -2 0 -6 6 -2 12 -13
12 -23 0 -23 -30 -55 -39 -41 -5 8 -30 9 -51 1 -3 -1 -9 -2 -14 -1 -5 1 -13
-4 -17 -11 -9 -13 -12 6 -12 82 -2 148 10 176 71 167 18 -4 40 -11 48 -18z
m104 -75 c0 -8 -4 -14 -9 -14 -6 0 -9 9 -8 19 1 22 17 18 17 -5z m2220 13 c0
-2 -10 -12 -22 -23 l-23 -19 19 23 c18 21 26 27 26 19z m-2160 -73 c0 -24 -4
-45 -9 -48 -5 -3 -8 13 -6 36 2 37 1 40 -10 25 -10 -13 -14 -15 -17 -5 -4 11
-8 10 -21 -1 -12 -9 -17 -10 -17 -2 0 6 7 14 15 17 8 4 15 15 15 25 0 16 3 17
25 7 21 -9 25 -18 25 -54z m47 9 c-3 -10 -5 -2 -5 17 0 19 2 27 5 18 2 -10 2
-26 0 -35z m-898 -21 c-5 -2 -7 -8 -3 -13 3 -5 1 -9 -5 -9 -5 0 -12 -8 -14
-17 -3 -11 -5 -7 -6 10 0 15 3 27 9 27 5 0 6 8 3 17 -6 15 -5 16 9 3 9 -8 12
-17 7 -18z m2941 14 c0 -2 -8 -10 -17 -17 -16 -13 -17 -12 -4 4 13 16 21 21
21 13z m-2147 -36 c-3 -11 -13 -20 -23 -20 -10 0 -21 -6 -23 -12 -3 -7 -6 -3
-6 9 -1 16 3 20 19 16 14 -4 20 0 20 11 0 9 4 16 9 16 5 0 7 -9 4 -20z m-1156
-37 c-3 -10 -5 -4 -5 12 0 17 2 24 5 18 2 -7 2 -21 0 -30z m393 12 c0 -8 -2
-15 -4 -15 -2 0 -6 7 -10 15 -3 8 -1 15 4 15 6 0 10 -7 10 -15z m987 -7 c-3
-8 -6 -5 -6 6 -1 11 2 17 5 13 3 -3 4 -12 1 -19z m-197 2 c0 -5 -4 -10 -10
-10 -5 0 -10 5 -10 10 0 6 5 10 10 10 6 0 10 -4 10 -10z m-790 -30 c0 -5 -5
-10 -11 -10 -5 0 -7 5 -4 10 3 6 8 10 11 10 2 0 4 -4 4 -10z m-389 -19 c6 10
9 8 9 -10 0 -13 8 -30 18 -38 10 -9 5 -8 -12 2 l-29 17 7 -28 c5 -21 4 -25 -4
-14 -5 8 -9 33 -9 55 1 22 4 31 6 21 4 -15 7 -16 14 -5z m1054 0 c-3 -6 -14
-10 -23 -10 -15 1 -15 2 1 6 9 2 17 9 17 15 0 6 3 9 6 5 3 -3 3 -10 -1 -16z
m295 -61 l-11 -25 6 25 c2 14 6 39 6 55 l2 30 4 -30 c2 -17 -1 -42 -7 -55z
m-350 54 c0 -2 -12 -4 -26 -4 -14 0 -23 4 -20 9 6 8 46 4 46 -5z m247 -6 c-3
-8 -6 -5 -6 6 -1 11 2 17 5 13 3 -3 4 -12 1 -19z m-40 6 c-3 -3 -12 -4 -19 -1
-8 3 -5 6 6 6 11 1 17 -2 13 -5z m-37 -43 c13 -25 13 -42 -1 -18 -11 18 -39
24 -39 7 0 -5 8 -7 18 -3 14 5 14 3 -3 -14 -11 -11 -24 -18 -29 -15 -4 2 -3 7
2 11 7 4 8 12 2 21 -11 18 -18 12 -24 -26 -9 -51 -32 -108 -45 -112 -9 -3 -9
2 2 19 9 13 21 52 28 87 11 61 12 62 45 62 23 0 37 -6 44 -19z m67 -18 c-3
-10 -5 -4 -5 12 0 17 2 24 5 18 2 -7 2 -21 0 -30z m-487 7 c0 -11 -2 -20 -4
-20 -2 0 -6 9 -9 20 -3 11 -1 20 4 20 5 0 9 -9 9 -20z m206 -15 c18 -43 18
-49 -1 -41 -25 9 -17 -13 15 -44 26 -26 34 -29 53 -20 20 10 20 10 -2 -10
l-24 -21 -34 33 c-29 28 -33 38 -33 85 0 29 2 53 6 53 3 0 12 -16 20 -35z m44
11 c0 5 9 10 20 10 25 0 27 -31 3 -45 -26 -14 -53 5 -53 37 1 26 1 26 15 8 8
-11 15 -15 15 -10z m599 -10 c-12 -26 -29 -35 -29 -16 0 6 5 10 11 10 6 0 9 6
6 14 -3 8 -1 17 6 19 18 6 19 2 6 -27z m-1319 20 c0 -3 -4 -8 -10 -11 -5 -3
-10 -1 -10 4 0 6 5 11 10 11 6 0 10 -2 10 -4z m-234 -39 c3 -23 -3 -21 -17 4
-8 17 -8 20 2 17 7 -2 13 -12 15 -21z m244 3 c0 -5 -2 -10 -4 -10 -3 0 -8 5
-11 10 -3 6 -1 10 4 10 6 0 11 -4 11 -10z m-270 -21 c0 -6 -4 -7 -10 -4 -5 3
-10 11 -10 16 0 6 5 7 10 4 6 -3 10 -11 10 -16z m150 11 c0 -5 -5 -10 -11 -10
-5 0 -7 5 -4 10 3 6 8 10 11 10 2 0 4 -4 4 -10z m1052 -22 c-8 -8 -9 -4 -5 13
4 13 8 18 11 10 2 -7 -1 -18 -6 -23z m209 -1 c-10 -9 -11 -8 -5 6 3 10 9 15
12 12 3 -3 0 -11 -7 -18z m-1222 -27 c4 0 8 -6 8 -14 0 -8 -6 -12 -14 -9 -7 3
-11 9 -8 13 3 5 1 11 -5 15 -6 4 -7 12 -3 18 5 8 9 7 11 -5 2 -10 7 -18 11
-18z m812 0 c5 0 9 8 9 18 0 14 2 15 10 2 5 -9 5 -19 0 -24 -13 -13 -40 1 -39
21 1 17 2 17 6 1 2 -10 9 -18 14 -18z m-619 -55 c3 -13 1 -22 -3 -19 -9 5 -13
44 -5 44 2 0 6 -11 8 -25z m763 15 c3 -6 -1 -7 -9 -4 -18 7 -21 14 -7 14 6 0
13 -4 16 -10z m-961 -16 c3 -8 2 -12 -4 -9 -6 3 -10 10 -10 16 0 14 7 11 14
-7z m232 -9 c-2 -7 9 -25 26 -39 18 -14 28 -29 25 -33 -4 -4 -14 3 -23 15 -16
23 -39 20 -30 -4 3 -8 1 -14 -3 -14 -13 0 -22 28 -11 35 5 3 7 20 3 37 -5 23
-3 29 6 24 7 -5 10 -14 7 -21z m144 -15 c-8 -6 -10 -10 -5 -10 6 0 3 -5 -5
-10 -13 -9 -13 -11 -1 -19 8 -5 21 -7 30 -4 13 4 13 3 2 -5 -11 -8 -10 -12 5
-21 11 -6 14 -11 7 -11 -6 0 -15 5 -18 10 -4 6 -15 8 -26 5 -13 -4 -19 -2 -19
9 0 9 -6 16 -12 16 -8 1 -6 6 5 14 9 7 17 18 17 24 0 6 6 12 13 15 18 7 23 -3
7 -13z m320 -37 c0 -7 5 -14 10 -14 6 -1 14 -2 19 -3 14 -2 26 -16 13 -16 -5
0 -19 -3 -29 -6 -15 -5 -15 -4 -3 5 13 9 13 11 -2 11 -10 0 -18 4 -18 10 0 5
-7 6 -17 3 -11 -4 -14 -3 -9 5 4 7 3 12 -3 12 -5 0 -11 -12 -13 -27 -3 -28 -4
-27 -9 4 -5 32 -5 33 28 30 18 -1 33 -7 33 -14z m30 7 c0 -5 -2 -10 -4 -10 -3
0 -8 5 -11 10 -3 6 -1 10 4 10 6 0 11 -4 11 -10z m-173 -15 c0 -8 -4 -15 -9
-15 -10 0 -11 14 -1 23 9 10 10 9 10 -8z m-69 -30 c2 -1 -8 -5 -22 -7 -14 -3
-23 -2 -21 3 3 4 -1 10 -7 13 -7 3 1 3 17 -1 17 -3 31 -7 33 -8z m-240 -20
c-3 -3 -9 2 -12 12 -6 14 -5 15 5 6 7 -7 10 -15 7 -18z m502 0 c0 -9 -6 -18
-14 -21 -9 -3 -12 -13 -9 -22 4 -9 3 -14 -1 -11 -13 12 -15 53 -3 61 18 12 27
10 27 -7z m-380 -5 c0 -5 -5 -10 -11 -10 -5 0 -7 5 -4 10 3 6 8 10 11 10 2 0
4 -4 4 -10z m270 0 c0 -5 -5 -10 -11 -10 -5 0 -7 5 -4 10 3 6 8 10 11 10 2 0
4 -4 4 -10z m140 -6 c0 -8 -5 -12 -10 -9 -6 4 -8 11 -5 16 9 14 15 11 15 -7z
m-350 -17 c0 -1 -11 -3 -25 -3 -24 -2 -32 6 -19 19 6 5 44 -9 44 -16z m30 13
c0 -5 -2 -10 -4 -10 -3 0 -8 5 -11 10 -3 6 -1 10 4 10 6 0 11 -4 11 -10z m24
-6 c3 -8 2 -12 -4 -9 -6 3 -10 10 -10 16 0 14 7 11 14 -7z m-18 -37 c-1 -18
-6 -23 -19 -19 -9 2 -20 9 -24 15 -3 5 -1 7 4 4 6 -4 16 0 23 8 17 20 18 19
16 -8z m684 9 c0 -2 -8 -10 -17 -17 -16 -13 -17 -12 -4 4 13 16 21 21 21 13z
m-600 -10 c0 -3 -4 -8 -10 -11 -5 -3 -10 -1 -10 4 0 6 5 11 10 11 6 0 10 -2
10 -4z m137 -18 c-3 -8 -6 -5 -6 6 -1 11 2 17 5 13 3 -3 4 -12 1 -19z m1803
-2 c0 -2 -8 -10 -17 -17 -16 -13 -17 -12 -4 4 13 16 21 21 21 13z m-2299 -23
c13 -16 12 -17 -3 -4 -17 13 -22 21 -14 21 2 0 10 -8 17 -17z m606 -17 c0 -8
-6 -12 -14 -9 -7 3 -10 9 -7 14 8 14 21 11 21 -5z m93 -28 c0 -18 -2 -20 -9
-8 -6 8 -7 18 -5 22 9 14 14 9 14 -14z m74 -51 c9 9 7 -10 -3 -25 -6 -10 -10
-8 -14 10 -6 22 -7 22 -21 3 -9 -11 -16 -15 -16 -9 0 5 5 15 11 21 9 9 8 16
-5 28 -9 9 -16 19 -16 23 0 4 14 -7 29 -25 16 -17 32 -29 35 -26z m28 -2 c-2
-14 -9 -25 -14 -25 -5 0 -7 3 -5 8 2 4 7 15 10 25 9 25 15 21 9 -8z m-59 -42
c-7 -3 -13 -16 -13 -29 0 -14 -4 -23 -10 -19 -10 6 -4 31 13 53 5 7 13 10 16
6 3 -4 0 -9 -6 -11z m-43 -53 c0 -5 -4 -10 -10 -10 -5 0 -10 5 -10 10 0 6 5
10 10 10 6 0 10 -4 10 -10z m-299 -47 c-12 -20 -14 -14 -5 12 4 9 9 14 11 11
3 -2 0 -13 -6 -23z"/>
<path d="M2529 8218 c0 -84 -1 -210 -2 -280 -1 -94 1 -128 10 -128 6 0 14 4
17 9 3 5 16 11 30 15 13 3 54 24 92 46 37 22 73 41 78 43 6 2 9 74 8 188 l-2
184 -42 38 c-39 36 -43 37 -114 37 l-74 0 -1 -152z"/>
<path d="M5258 8223 c7 -3 16 -2 19 1 4 3 -2 6 -13 5 -11 0 -14 -3 -6 -6z"/>
<path d="M5282 8118 c-7 -29 -23 -118 -37 -198 -14 -80 -32 -175 -39 -212 -7
-37 -12 -69 -11 -70 2 -2 53 -2 115 0 l112 3 -7 42 c-7 48 -58 307 -81 415
-18 87 -36 93 -52 20z"/>
<path d="M5480 7656 c0 -2 7 -7 16 -10 8 -3 12 -2 9 4 -6 10 -25 14 -25 6z"/>
<path d="M6240 7805 l0 -565 85 0 85 0 55 67 55 67 0 440 c-1 329 -4 447 -13
463 -7 12 -35 38 -62 58 -47 33 -55 35 -127 35 l-78 0 0 -565z"/>
<path d="M7180 8500 c0 -5 5 -10 10 -10 6 0 10 5 10 10 0 6 -4 10 -10 10 -5 0
-10 -4 -10 -10z"/>
<path d="M7600 7159 c0 -5 5 -7 10 -4 6 3 10 8 10 11 0 2 -4 4 -10 4 -5 0 -10
-5 -10 -11z"/>
<path d="M8130 8090 l0 -280 28 11 c15 5 69 31 119 57 l93 47 0 180 c0 99 -4
185 -8 192 -4 6 -25 25 -46 42 -35 28 -45 31 -112 31 l-74 0 0 -280z"/>
<path d="M8370 7880 c0 -5 5 -10 10 -10 6 0 10 5 10 10 0 6 -4 10 -10 10 -5 0
-10 -4 -10 -10z"/>
<path d="M1720 6710 c8 -5 20 -10 25 -10 6 0 3 5 -5 10 -8 5 -19 10 -25 10 -5
0 -3 -5 5 -10z"/>
<path d="M2247 6700 c-8 -11 -16 -18 -19 -15 -3 3 -11 -2 -19 -11 -12 -15 -11
-16 11 -9 14 4 30 14 37 22 6 8 16 12 22 8 7 -3 8 0 5 9 -8 21 -20 20 -37 -4z"/>
<path d="M2922 6680 c0 -14 2 -19 5 -12 2 6 2 18 0 25 -3 6 -5 1 -5 -13z"/>
<path d="M1845 6680 c3 -5 8 -10 11 -10 2 0 4 5 4 10 0 6 -5 10 -11 10 -5 0
-7 -4 -4 -10z"/>
<path d="M2140 6671 c0 -6 5 -13 10 -16 6 -3 10 1 10 9 0 9 -4 16 -10 16 -5 0
-10 -4 -10 -9z"/>
<path d="M1836 6657 c3 -10 9 -15 12 -12 3 3 0 11 -7 18 -10 9 -11 8 -5 -6z"/>
<path d="M1923 6645 c0 -8 4 -12 9 -9 4 3 8 9 8 15 0 5 -4 9 -8 9 -5 0 -9 -7
-9 -15z"/>
<path d="M1960 6650 c0 -6 7 -10 15 -10 8 0 15 2 15 4 0 2 -7 6 -15 10 -8 3
-15 1 -15 -4z"/>
<path d="M1945 6620 c-3 -6 1 -7 9 -4 18 7 21 14 7 14 -6 0 -13 -4 -16 -10z"/>
<path d="M2065 6611 c-3 -5 -1 -12 5 -16 5 -3 10 1 10 9 0 18 -6 21 -15 7z"/>
<path d="M1863 6595 c-17 -18 -16 -22 1 -22 8 0 17 9 19 19 6 21 -3 23 -20 3z"/>
<path d="M2810 6581 c0 -6 4 -13 10 -16 6 -3 7 1 4 9 -7 18 -14 21 -14 7z"/>
<path d="M3850 6560 c0 -5 5 -10 11 -10 5 0 7 5 4 10 -3 6 -8 10 -11 10 -2 0
-4 -4 -4 -10z"/>
<path d="M1750 6546 c0 -2 7 -7 16 -10 8 -3 12 -2 9 4 -6 10 -25 14 -25 6z"/>
<path d="M1795 6520 c-3 -5 -1 -10 4 -10 6 0 11 5 11 10 0 6 -2 10 -4 10 -3 0
-8 -4 -11 -10z"/>
<path d="M3485 6420 c-3 -5 -1 -10 4 -10 6 0 11 5 11 10 0 6 -2 10 -4 10 -3 0
-8 -4 -11 -10z"/>
<path d="M3150 6390 c0 -5 5 -10 11 -10 5 0 7 5 4 10 -3 6 -8 10 -11 10 -2 0
-4 -4 -4 -10z"/>
<path d="M3405 6390 c-3 -5 -1 -10 4 -10 6 0 11 5 11 10 0 6 -2 10 -4 10 -3 0
-8 -4 -11 -10z"/>
<path d="M2406 6355 c4 -8 11 -15 16 -15 6 0 5 6 -2 15 -7 8 -14 15 -16 15 -2
0 -1 -7 2 -15z"/>
<path d="M3148 6358 c7 -7 16 -7 28 0 14 8 13 10 -10 10 -18 0 -24 -4 -18 -10z"/>
<path d="M3070 6339 c0 -5 5 -7 10 -4 6 3 10 8 10 11 0 2 -4 4 -10 4 -5 0 -10
-5 -10 -11z"/>
<path d="M2810 6305 c0 -5 5 -17 10 -25 5 -8 10 -10 10 -5 0 6 -5 17 -10 25
-5 8 -10 11 -10 5z"/>
<path d="M2166 6282 c-2 -4 4 -9 15 -9 10 -1 19 2 19 8 0 11 -27 12 -34 1z"/>
<path d="M2434 6256 c23 -18 36 -20 36 -6 0 6 -4 10 -9 10 -5 0 -18 3 -28 6
-16 5 -16 4 1 -10z"/>
<path d="M2141 6217 c-13 -21 -12 -21 5 -5 10 10 16 20 13 22 -3 3 -11 -5 -18
-17z"/>
<path d="M2210 6231 c0 -10 19 -25 25 -20 1 2 -3 10 -11 17 -8 7 -14 8 -14 3z"/>
<path d="M3710 6206 c0 -2 7 -7 16 -10 8 -3 12 -2 9 4 -6 10 -25 14 -25 6z"/>
<path d="M3900 6181 c0 -6 4 -13 10 -16 6 -3 7 1 4 9 -7 18 -14 21 -14 7z"/>
<path d="M3080 6089 c0 -5 5 -7 10 -4 6 3 10 8 10 11 0 2 -4 4 -10 4 -5 0 -10
-5 -10 -11z"/>
<path d="M3900 6096 c0 -2 8 -10 18 -17 15 -13 16 -12 3 4 -13 16 -21 21 -21
13z"/>
<path d="M3510 6021 c0 -5 7 -12 16 -15 14 -5 15 -4 4 9 -14 17 -20 19 -20 6z"/>
<path d="M3766 6017 c3 -10 9 -15 12 -12 3 3 0 11 -7 18 -10 9 -11 8 -5 -6z"/>
<path d="M3860 6000 c0 -5 5 -10 11 -10 5 0 7 5 4 10 -3 6 -8 10 -11 10 -2 0
-4 -4 -4 -10z"/>
<path d="M3900 5999 c0 -5 5 -7 10 -4 6 3 10 8 10 11 0 2 -4 4 -10 4 -5 0 -10
-5 -10 -11z"/>
<path d="M4178 5973 c7 -3 16 -2 19 1 4 3 -2 6 -13 5 -11 0 -14 -3 -6 -6z"/>
<path d="M3848 5963 c7 -3 16 -2 19 1 4 3 -2 6 -13 5 -11 0 -14 -3 -6 -6z"/>
<path d="M2397 5953 c-4 -3 -7 -11 -7 -17 0 -6 5 -5 12 2 6 6 9 14 7 17 -3 3
-9 2 -12 -2z"/>
<path d="M3775 5950 c3 -5 8 -10 11 -10 2 0 4 5 4 10 0 6 -5 10 -11 10 -5 0
-7 -4 -4 -10z"/>
<path d="M2476 5933 c-6 -14 -5 -15 5 -6 7 7 10 15 7 18 -3 3 -9 -2 -12 -12z"/>
<path d="M4057 5939 c7 -7 15 -10 18 -7 3 3 -2 9 -12 12 -14 6 -15 5 -6 -5z"/>
<path d="M2505 5930 c3 -5 8 -10 11 -10 2 0 4 5 4 10 0 6 -5 10 -11 10 -5 0
-7 -4 -4 -10z"/>
<path d="M4560 5931 c0 -5 7 -12 16 -15 24 -9 27 -7 10 9 -17 17 -26 19 -26 6z"/>
<path d="M2435 5920 c-3 -5 -13 -6 -23 -3 -13 4 -14 3 -6 -6 11 -12 44 -5 44
10 0 12 -7 11 -15 -1z"/>
<path d="M4350 5919 c0 -5 5 -7 10 -4 6 3 10 8 10 11 0 2 -4 4 -10 4 -5 0 -10
-5 -10 -11z"/>
<path d="M4395 5920 c-3 -5 -1 -10 4 -10 6 0 11 5 11 10 0 6 -2 10 -4 10 -3 0
-8 -4 -11 -10z"/>
<path d="M2510 5891 c-13 -13 -12 -14 4 -8 10 4 22 7 27 7 5 0 9 4 9 8 0 14
-25 10 -40 -7z"/>
<path d="M2576 5882 c-2 -4 4 -9 15 -9 11 -1 17 2 14 8 -7 11 -22 12 -29 1z"/>
<path d="M3235 5860 c3 -5 8 -10 11 -10 2 0 4 5 4 10 0 6 -5 10 -11 10 -5 0
-7 -4 -4 -10z"/>
<path d="M4386 5847 c3 -10 9 -15 12 -12 3 3 0 11 -7 18 -10 9 -11 8 -5 -6z"/>
<path d="M4238 5843 c7 -3 16 -2 19 1 4 3 -2 6 -13 5 -11 0 -14 -3 -6 -6z"/>
<path d="M2525 5830 c-3 -5 -1 -10 4 -10 6 0 11 5 11 10 0 6 -2 10 -4 10 -3 0
-8 -4 -11 -10z"/>
<path d="M3606 5805 c-3 -8 -1 -15 3 -15 5 0 11 7 15 15 3 8 1 15 -3 15 -5 0
-11 -7 -15 -15z"/>
<path d="M3533 5793 c-13 -9 -23 -20 -23 -26 0 -6 11 0 24 12 16 15 25 18 28
10 2 -6 11 -10 18 -7 12 4 10 7 -5 15 -15 8 -26 7 -42 -4z"/>
<path d="M3944 5785 c8 -8 18 -15 22 -15 3 0 1 7 -6 15 -7 8 -17 15 -22 15 -5
0 -3 -7 6 -15z"/>
<path d="M4271 5784 c0 -11 3 -14 6 -6 3 7 2 16 -1 19 -3 4 -6 -2 -5 -13z"/>
<path d="M4330 5789 c0 -5 5 -7 10 -4 6 3 10 8 10 11 0 2 -4 4 -10 4 -5 0 -10
-5 -10 -11z"/>
<path d="M4100 5779 c0 -5 5 -7 10 -4 6 3 10 8 10 11 0 2 -4 4 -10 4 -5 0 -10
-5 -10 -11z"/>
<path d="M3080 5770 c-8 -5 -10 -10 -5 -10 6 0 17 5 25 10 8 5 11 10 5 10 -5
0 -17 -5 -25 -10z"/>
<path d="M3600 5750 c-9 -6 -10 -10 -3 -10 6 0 15 5 18 10 8 12 4 12 -15 0z"/>
<path d="M3065 5740 c-3 -5 -1 -10 4 -10 6 0 11 5 11 10 0 6 -2 10 -4 10 -3 0
-8 -4 -11 -10z"/>
<path d="M3125 5740 c-3 -5 1 -10 10 -10 9 0 13 5 10 10 -3 6 -8 10 -10 10 -2
0 -7 -4 -10 -10z"/>
<path d="M3586 5715 c4 -8 11 -15 16 -15 6 0 5 6 -2 15 -7 8 -14 15 -16 15 -2
0 -1 -7 2 -15z"/>
<path d="M3510 5703 c0 -4 5 -15 10 -23 8 -13 10 -13 10 2 0 9 -4 20 -10 23
-5 3 -10 3 -10 -2z"/>
<path d="M3560 5699 c0 -5 5 -7 10 -4 6 3 10 8 10 11 0 2 -4 4 -10 4 -5 0 -10
-5 -10 -11z"/>
<path d="M3840 5701 c-8 -6 -18 -7 -24 -4 -5 3 -6 1 -2 -5 4 -6 13 -9 20 -6 8
3 17 1 21 -5 3 -6 12 -11 18 -11 7 0 4 5 -6 11 -9 6 -15 14 -12 20 8 11 4 11
-15 0z"/>
<path d="M4081 5694 c0 -11 3 -14 6 -6 3 7 2 16 -1 19 -3 4 -6 -2 -5 -13z"/>
<path d="M4455 5699 c-4 -6 -4 -13 -1 -16 3 -4 6 -1 6 6 0 7 5 9 12 5 7 -4 8
-3 4 4 -9 15 -13 15 -21 1z"/>
<path d="M3078 5693 c7 -3 16 -2 19 1 4 3 -2 6 -13 5 -11 0 -14 -3 -6 -6z"/>
<path d="M4260 5691 c0 -10 29 -36 34 -30 1 2 -6 12 -16 22 -10 9 -18 13 -18
8z"/>
<path d="M2941 5681 c-11 -7 -10 -10 5 -14 18 -5 18 -5 -2 -12 -20 -6 -21 -9
-7 -36 18 -35 26 -38 13 -4 -7 19 -6 26 7 33 11 7 13 14 7 25 -6 11 -14 13
-23 8z"/>
<path d="M3575 5680 c-4 -6 -11 -8 -16 -5 -5 3 -6 -1 -3 -9 5 -12 8 -12 25 2
10 9 19 18 19 19 0 8 -20 2 -25 -7z"/>
<path d="M3090 5670 c-9 -6 -10 -10 -3 -10 6 0 15 5 18 10 8 12 4 12 -15 0z"/>
<path d="M2765 5660 c3 -5 8 -10 11 -10 2 0 4 5 4 10 0 6 -5 10 -11 10 -5 0
-7 -4 -4 -10z"/>
<path d="M3498 5658 c6 -6 18 -8 28 -6 14 3 12 5 -9 10 -19 3 -25 2 -19 -4z"/>
<path d="M3475 5640 c3 -5 14 -10 23 -10 15 0 15 2 2 10 -20 13 -33 13 -25 0z"/>
<path d="M3577 5635 c-4 -8 -2 -17 3 -20 6 -4 10 3 10 14 0 25 -6 27 -13 6z"/>
<path d="M3406 5631 c-3 -5 1 -14 8 -20 12 -10 13 -8 9 8 -6 23 -9 25 -17 12z"/>
<path d="M4100 5630 c0 -5 5 -10 11 -10 5 0 7 5 4 10 -3 6 -8 10 -11 10 -2 0
-4 -4 -4 -10z"/>
<path d="M3520 5620 c0 -5 -8 -7 -17 -3 -10 3 -3 -6 16 -20 30 -23 51 -27 51
-11 0 3 -3 3 -8 0 -4 -2 -16 2 -27 10 -10 8 -13 14 -7 14 7 0 12 5 12 10 0 6
-4 10 -10 10 -5 0 -10 -4 -10 -10z"/>
<path d="M3810 5620 c0 -6 7 -10 15 -10 8 0 15 2 15 4 0 2 -7 6 -15 10 -8 3
-15 1 -15 -4z"/>
<path d="M3466 5604 c7 -17 6 -17 -9 -5 -15 12 -17 12 -11 -3 4 -10 1 -16 -7
-16 -7 0 -3 -9 10 -21 25 -24 41 -20 17 4 -14 13 -14 16 0 21 22 9 24 8 18 -9
-4 -8 -4 -15 -1 -15 15 0 13 31 -4 46 -19 17 -20 17 -13 -2z"/>
<path d="M4040 5610 c0 -5 5 -10 10 -10 6 0 10 5 10 10 0 6 -4 10 -10 10 -5 0
-10 -4 -10 -10z"/>
<path d="M4300 5616 c0 -2 7 -7 16 -10 8 -3 12 -2 9 4 -6 10 -25 14 -25 6z"/>
<path d="M4124 5595 c3 -21 16 -31 16 -12 0 9 -4 18 -9 21 -5 4 -8 -1 -7 -9z"/>
<path d="M4470 5600 c-13 -8 -13 -10 2 -10 9 0 20 5 23 10 8 13 -5 13 -25 0z"/>
<path d="M3370 5589 c0 -5 5 -7 10 -4 6 3 10 8 10 11 0 2 -4 4 -10 4 -5 0 -10
-5 -10 -11z"/>
<path d="M3765 5590 c-3 -5 -1 -10 4 -10 6 0 11 5 11 10 0 6 -2 10 -4 10 -3 0
-8 -4 -11 -10z"/>
<path d="M2972 5581 c-11 -7 -10 -10 3 -15 10 -3 15 -12 11 -21 -8 -22 8 -18
30 6 19 21 19 22 -3 15 -15 -5 -22 -2 -25 8 -2 10 -8 13 -16 7z"/>
<path d="M3330 5579 c0 -5 5 -7 10 -4 6 3 10 8 10 11 0 2 -4 4 -10 4 -5 0 -10
-5 -10 -11z"/>
<path d="M3787 5565 c-12 -8 -14 -15 -8 -20 6 -3 11 -3 11 2 0 4 4 2 9 -5 7
-11 9 -11 14 1 9 24 -6 37 -26 22z"/>
<path d="M3507 5563 c-12 -11 -8 -23 8 -23 8 0 15 7 15 15 0 16 -12 20 -23 8z"/>
<path d="M4070 5560 c0 -5 5 -10 10 -10 6 0 10 5 10 10 0 6 -4 10 -10 10 -5 0
-10 -4 -10 -10z"/>
<path d="M2917 5549 c7 -7 15 -10 18 -7 3 3 -2 9 -12 12 -14 6 -15 5 -6 -5z"/>
<path d="M3420 5550 c0 -5 5 -10 11 -10 5 0 7 5 4 10 -3 6 -8 10 -11 10 -2 0
-4 -4 -4 -10z"/>
<path d="M3370 5536 c0 -2 8 -10 18 -17 15 -13 16 -12 3 4 -13 16 -21 21 -21
13z"/>
<path d="M4077 5529 c7 -7 15 -10 18 -7 3 3 -2 9 -12 12 -14 6 -15 5 -6 -5z"/>
<path d="M3712 5518 c10 -6 10 -8 -2 -8 -10 -1 -7 -7 10 -22 l25 -21 -29 7
c-26 6 -28 5 -17 -8 7 -8 19 -12 27 -9 7 3 17 -2 20 -11 8 -20 20 -21 27 -2 4
10 1 13 -9 9 -9 -3 -14 1 -14 12 0 10 -8 24 -17 32 -17 14 -17 14 3 10 12 -2
21 1 21 8 0 6 -13 12 -29 12 -19 0 -24 -3 -16 -9z"/>
<path d="M4260 5519 c0 -5 5 -7 10 -4 6 3 10 8 10 11 0 2 -4 4 -10 4 -5 0 -10
-5 -10 -11z"/>
<path d="M3429 5518 c-5 -17 -4 -48 3 -48 4 0 8 7 8 15 0 8 7 15 15 15 9 0 12
-6 9 -17 -5 -15 -4 -15 4 -3 8 10 8 18 0 27 -9 11 -36 18 -39 11z"/>
<path d="M3836 5511 c-4 -5 3 -7 14 -4 23 6 26 13 6 13 -8 0 -17 -4 -20 -9z"/>
<path d="M4066 5495 c4 -8 8 -15 10 -15 2 0 4 7 4 15 0 8 -4 15 -10 15 -5 0
-7 -7 -4 -15z"/>
<path d="M4245 5490 c-3 -6 1 -7 9 -4 18 7 21 14 7 14 -6 0 -13 -4 -16 -10z"/>
<path d="M3368 5483 c6 -2 18 -2 25 0 6 3 1 5 -13 5 -14 0 -19 -2 -12 -5z"/>
<path d="M3807 5474 c2 -7 11 -10 19 -7 19 7 18 10 -5 16 -13 3 -18 1 -14 -9z"/>
<path d="M4010 5470 c-13 -8 -12 -10 3 -10 9 0 17 5 17 10 0 12 -1 12 -20 0z"/>
<path d="M3666 5462 c-3 -5 1 -9 9 -9 8 0 12 4 9 9 -3 4 -7 8 -9 8 -2 0 -6 -4
-9 -8z"/>
<path d="M3351 5457 c2 -1 13 -9 24 -17 19 -14 19 -14 6 3 -7 9 -18 17 -24 17
-6 0 -8 -1 -6 -3z"/>
<path d="M3416 5448 c3 -4 11 -5 19 -1 21 7 19 12 -4 10 -11 0 -18 -5 -15 -9z"/>
<path d="M3310 5436 c0 -2 7 -7 16 -10 8 -3 12 -2 9 4 -6 10 -25 14 -25 6z"/>
<path d="M3700 5430 c8 -5 20 -10 25 -10 6 0 3 5 -5 10 -8 5 -19 10 -25 10 -5
0 -3 -5 5 -10z"/>
<path d="M3296 5412 c-2 -4 4 -8 14 -8 10 0 16 4 14 8 -3 4 -9 8 -14 8 -5 0
-11 -4 -14 -8z"/>
<path d="M3972 5413 c1 -4 -4 -19 -11 -32 -10 -18 -10 -22 0 -19 17 6 31 46
18 53 -5 4 -8 3 -7 -2z"/>
<path d="M3250 5366 c7 -7 13 -7 20 0 6 6 3 10 -10 10 -13 0 -16 -4 -10 -10z"/>
<path d="M3729 5357 c7 -9 11 -26 8 -37 -3 -11 -1 -18 4 -14 5 3 9 1 9 -4 0
-5 6 -9 13 -9 17 0 22 63 5 64 -7 0 -22 4 -33 9 -18 7 -18 6 -6 -9z m41 -32
c0 -8 -4 -15 -8 -15 -5 0 -9 7 -9 15 0 8 4 15 9 15 4 0 8 -7 8 -15z"/>
<path d="M4060 5340 c-9 -6 -10 -10 -3 -10 6 0 15 5 18 10 8 12 4 12 -15 0z"/>
<path d="M3595 5310 c3 -5 8 -10 11 -10 2 0 4 5 4 10 0 6 -5 10 -11 10 -5 0
-7 -4 -4 -10z"/>
<path d="M3557 5299 c7 -7 15 -10 18 -7 3 3 -2 9 -12 12 -14 6 -15 5 -6 -5z"/>
<path d="M3977 5289 c7 -7 15 -10 18 -7 3 3 -2 9 -12 12 -14 6 -15 5 -6 -5z"/>
<path d="M3655 5270 c3 -5 8 -10 11 -10 2 0 4 5 4 10 0 6 -5 10 -11 10 -5 0
-7 -4 -4 -10z"/>
<path d="M3731 5264 c0 -11 3 -14 6 -6 3 7 2 16 -1 19 -3 4 -6 -2 -5 -13z"/>
<path d="M3595 5260 c-3 -5 -2 -10 4 -10 6 0 8 -7 5 -15 -4 -8 -1 -15 5 -15 6
0 11 11 11 25 0 25 -14 33 -25 15z"/>
<path d="M3685 5261 c-6 -11 13 -26 22 -17 4 3 1 6 -6 6 -7 0 -9 5 -6 10 3 6
4 10 1 10 -3 0 -7 -4 -11 -9z"/>
<path d="M3580 5200 c-9 -6 -10 -10 -3 -10 6 0 15 5 18 10 8 12 4 12 -15 0z"/>
<path d="M7260 6709 c0 -5 5 -7 10 -4 6 3 10 8 10 11 0 2 -4 4 -10 4 -5 0 -10
-5 -10 -11z"/>
<path d="M8635 6710 c3 -5 8 -10 11 -10 2 0 4 5 4 10 0 6 -5 10 -11 10 -5 0
-7 -4 -4 -10z"/>
<path d="M8291 6694 c0 -11 3 -14 6 -6 3 7 2 16 -1 19 -3 4 -6 -2 -5 -13z"/>
<path d="M8369 6708 c-6 -20 -5 -38 2 -49 7 -11 9 -10 9 4 0 11 5 15 11 11 8
-4 8 0 0 15 -10 18 -19 26 -22 19z"/>
<path d="M6760 6696 c0 -2 7 -7 16 -10 8 -3 12 -2 9 4 -6 10 -25 14 -25 6z"/>
<path d="M8428 6688 c5 -5 16 -8 23 -6 8 3 3 7 -10 11 -17 4 -21 3 -13 -5z"/>
<path d="M8087 6674 c3 -7 9 -14 14 -14 14 0 10 17 -5 23 -10 4 -13 1 -9 -9z"/>
<path d="M8125 6680 c-3 -5 -1 -10 4 -10 6 0 11 5 11 10 0 6 -2 10 -4 10 -3 0
-8 -4 -11 -10z"/>
<path d="M8217 6679 c7 -7 15 -10 18 -7 3 3 -2 9 -12 12 -14 6 -15 5 -6 -5z"/>
<path d="M8440 6660 c-13 -8 -13 -10 2 -10 9 0 20 5 23 10 8 13 -5 13 -25 0z"/>
<path d="M8050 6656 c0 -2 7 -7 16 -10 8 -3 12 -2 9 4 -6 10 -25 14 -25 6z"/>
<path d="M7340 6629 c0 -5 5 -7 10 -4 6 3 10 8 10 11 0 2 -4 4 -10 4 -5 0 -10
-5 -10 -11z"/>
<path d="M8450 6630 c0 -5 7 -7 15 -4 8 4 15 8 15 10 0 2 -7 4 -15 4 -8 0 -15
-4 -15 -10z"/>
<path d="M7390 6620 c0 -5 5 -10 10 -10 6 0 10 5 10 10 0 6 -4 10 -10 10 -5 0
-10 -4 -10 -10z"/>
<path d="M7566 6617 c3 -10 9 -15 12 -12 3 3 0 11 -7 18 -10 9 -11 8 -5 -6z"/>
<path d="M8376 6593 c-6 -14 -5 -15 5 -6 7 7 10 15 7 18 -3 3 -9 -2 -12 -12z"/>
<path d="M8466 6593 c-6 -14 -5 -15 5 -6 7 7 10 15 7 18 -3 3 -9 -2 -12 -12z"/>
<path d="M8498 6578 c7 -7 16 -7 28 0 14 8 13 10 -10 10 -18 0 -24 -4 -18 -10z"/>
<path d="M8038 6553 c-3 -10 1 -24 9 -32 12 -10 13 -8 7 16 -9 36 -10 38 -16
16z"/>
<path d="M8310 6560 c0 -5 5 -10 11 -10 5 0 7 5 4 10 -3 6 -8 10 -11 10 -2 0
-4 -4 -4 -10z"/>
<path d="M8420 6560 c0 -5 5 -10 10 -10 6 0 10 5 10 10 0 6 -4 10 -10 10 -5 0
-10 -4 -10 -10z"/>
<path d="M7998 6553 c7 -3 16 -2 19 1 4 3 -2 6 -13 5 -11 0 -14 -3 -6 -6z"/>
<path d="M8240 6540 c0 -17 19 -40 32 -40 4 0 8 5 8 12 0 6 -3 8 -7 4 -4 -3
-13 4 -20 16 -8 15 -12 18 -13 8z"/>
<path d="M7915 6530 c-3 -5 -1 -10 4 -10 6 0 11 5 11 10 0 6 -2 10 -4 10 -3 0
-8 -4 -11 -10z"/>
<path d="M8350 6516 c0 -2 7 -7 16 -10 8 -3 12 -2 9 4 -6 10 -25 14 -25 6z"/>
<path d="M6680 6466 c0 -2 8 -10 18 -17 15 -13 16 -12 3 4 -13 16 -21 21 -21
13z"/>
<path d="M6765 6460 c-3 -6 1 -7 9 -4 18 7 21 14 7 14 -6 0 -13 -4 -16 -10z"/>
<path d="M7046 6417 c3 -10 9 -15 12 -12 3 3 0 11 -7 18 -10 9 -11 8 -5 -6z"/>
<path d="M7570 6406 c0 -2 7 -7 16 -10 8 -3 12 -2 9 4 -6 10 -25 14 -25 6z"/>
<path d="M7005 6390 c3 -5 11 -10 16 -10 6 0 7 5 4 10 -3 6 -11 10 -16 10 -6
0 -7 -4 -4 -10z"/>
<path d="M7717 6383 c-4 -3 1 -19 9 -36 12 -23 18 -27 25 -16 5 8 9 19 9 26 0
14 -34 35 -43 26z"/>
<path d="M7635 6369 c-4 -6 -5 -12 -2 -15 2 -3 7 2 10 11 7 17 1 20 -8 4z"/>
<path d="M7558 6343 c6 -2 18 -2 25 0 6 3 1 5 -13 5 -14 0 -19 -2 -12 -5z"/>
<path d="M7960 6329 c0 -5 5 -7 10 -4 6 3 10 8 10 11 0 2 -4 4 -10 4 -5 0 -10
-5 -10 -11z"/>
<path d="M8230 6329 c0 -5 5 -7 10 -4 6 3 10 8 10 11 0 2 -4 4 -10 4 -5 0 -10
-5 -10 -11z"/>
<path d="M8170 6320 c-9 -6 -10 -10 -3 -10 6 0 15 5 18 10 8 12 4 12 -15 0z"/>
<path d="M7645 6310 c3 -5 8 -10 11 -10 2 0 4 5 4 10 0 6 -5 10 -11 10 -5 0
-7 -4 -4 -10z"/>
<path d="M8190 6306 c0 -2 8 -10 18 -17 15 -13 16 -12 3 4 -13 16 -21 21 -21
13z"/>
<path d="M7510 6269 c0 -5 5 -7 10 -4 6 3 10 8 10 11 0 2 -4 4 -10 4 -5 0 -10
-5 -10 -11z"/>
<path d="M8130 6270 c0 -5 5 -10 11 -10 5 0 7 5 4 10 -3 6 -8 10 -11 10 -2 0
-4 -4 -4 -10z"/>
<path d="M6700 6230 c0 -5 5 -10 11 -10 5 0 7 5 4 10 -3 6 -8 10 -11 10 -2 0
-4 -4 -4 -10z"/>
<path d="M6740 6216 c0 -2 7 -7 16 -10 8 -3 12 -2 9 4 -6 10 -25 14 -25 6z"/>
<path d="M6786 6209 c2 -4 13 -7 24 -6 23 2 17 10 -10 12 -10 1 -17 -2 -14 -6z"/>
<path d="M7028 6208 c5 -5 16 -8 23 -6 8 3 3 7 -10 11 -17 4 -21 3 -13 -5z"/>
<path d="M8010 6195 c-7 -9 -8 -15 -2 -15 5 0 12 7 16 15 3 8 4 15 2 15 -2 0
-9 -7 -16 -15z"/>
<path d="M7878 6173 c7 -3 16 -2 19 1 4 3 -2 6 -13 5 -11 0 -14 -3 -6 -6z"/>
<path d="M7131 6161 c-11 -7 -9 -10 7 -15 11 -4 23 -15 25 -24 4 -14 5 -14 6
-1 2 25 -22 50 -38 40z"/>
<path d="M7180 6154 c0 -14 3 -14 15 -4 8 7 15 14 15 16 0 2 -7 4 -15 4 -8 0
-15 -7 -15 -16z"/>
<path d="M7077 6143 c-10 -9 -9 -23 1 -23 5 0 9 7 9 15 0 17 -1 18 -10 8z"/>
<path d="M7210 6081 c0 -5 5 -13 10 -16 6 -3 10 -2 10 4 0 5 -4 13 -10 16 -5
3 -10 2 -10 -4z"/>
<path d="M7315 6070 c3 -5 8 -10 11 -10 2 0 4 5 4 10 0 6 -5 10 -11 10 -5 0
-7 -4 -4 -10z"/>
<path d="M7140 6059 c0 -5 5 -7 10 -4 6 3 10 8 10 11 0 2 -4 4 -10 4 -5 0 -10
-5 -10 -11z"/>
<path d="M6767 6040 c3 -11 9 -20 15 -20 5 0 4 9 -2 20 -6 11 -12 20 -14 20
-2 0 -2 -9 1 -20z"/>
<path d="M7298 6043 c7 -3 16 -2 19 1 4 3 -2 6 -13 5 -11 0 -14 -3 -6 -6z"/>
<path d="M7215 6030 c-3 -6 1 -7 9 -4 18 7 21 14 7 14 -6 0 -13 -4 -16 -10z"/>
<path d="M7563 6022 c-13 -22 0 -52 24 -52 13 0 12 4 -5 18 -20 17 -20 20 -4
35 9 9 12 17 7 17 -6 0 -15 -8 -22 -18z"/>
<path d="M7350 6022 c0 -12 19 -26 26 -19 2 2 -2 10 -11 17 -9 8 -15 8 -15 2z"/>
<path d="M7490 6015 c0 -8 4 -15 10 -15 5 0 7 7 4 15 -4 8 -8 15 -10 15 -2 0
-4 -7 -4 -15z"/>
<path d="M7795 6001 c-6 -11 13 -26 22 -17 4 3 1 6 -6 6 -7 0 -9 5 -6 10 3 6
4 10 1 10 -3 0 -7 -4 -11 -9z"/>
<path d="M6885 5980 c-3 -6 1 -7 9 -4 18 7 21 14 7 14 -6 0 -13 -4 -16 -10z"/>
<path d="M7360 5979 c0 -5 5 -7 10 -4 6 3 10 8 10 11 0 2 -4 4 -10 4 -5 0 -10
-5 -10 -11z"/>
<path d="M7510 5972 c0 -7 -7 -9 -17 -5 -15 6 -16 5 -3 -9 13 -14 16 -14 23
-1 5 8 6 17 3 20 -3 4 -6 1 -6 -5z"/>
<path d="M6256 5955 c-11 -8 -15 -15 -9 -15 6 0 16 7 23 15 16 19 11 19 -14 0z"/>
<path d="M7860 5960 l-25 -6 24 -8 c13 -5 27 -4 33 2 14 14 -2 20 -32 12z"/>
<path d="M7585 5950 c-3 -5 -1 -10 4 -10 6 0 11 5 11 10 0 6 -2 10 -4 10 -3 0
-8 -4 -11 -10z"/>
<path d="M7671 5924 c0 -11 3 -14 6 -6 3 7 2 16 -1 19 -3 4 -6 -2 -5 -13z"/>
<path d="M7845 5920 c3 -5 8 -10 11 -10 2 0 4 5 4 10 0 6 -5 10 -11 10 -5 0
-7 -4 -4 -10z"/>
<path d="M6985 5910 c3 -5 8 -10 11 -10 2 0 4 5 4 10 0 6 -5 10 -11 10 -5 0
-7 -4 -4 -10z"/>
<path d="M7022 5895 c-2 -26 12 -34 24 -13 4 7 3 8 -4 4 -16 -9 -15 7 0 22 9
9 9 12 -3 12 -8 0 -16 -11 -17 -25z"/>
<path d="M7470 5900 c-13 -8 -12 -10 3 -10 9 0 17 5 17 10 0 12 -1 12 -20 0z"/>
<path d="M7569 5893 c-13 -16 -12 -17 4 -4 9 7 17 15 17 17 0 8 -8 3 -21 -13z"/>
<path d="M7536 5887 c3 -10 9 -15 12 -12 3 3 0 11 -7 18 -10 9 -11 8 -5 -6z"/>
<path d="M6891 5875 c0 -11 3 -26 8 -33 7 -11 9 -11 14 2 4 9 2 16 -3 16 -5 0
-11 8 -13 18 -4 14 -5 14 -6 -3z"/>
<path d="M7698 5873 c7 -3 16 -2 19 1 4 3 -2 6 -13 5 -11 0 -14 -3 -6 -6z"/>
<path d="M6950 5848 c0 -9 5 -20 10 -23 13 -8 13 5 0 25 -8 13 -10 13 -10 -2z"/>
<path d="M7000 5850 c0 -5 5 -10 10 -10 6 0 10 5 10 10 0 6 -4 10 -10 10 -5 0
-10 -4 -10 -10z"/>
<path d="M6270 5846 c0 -2 7 -7 16 -10 8 -3 12 -2 9 4 -6 10 -25 14 -25 6z"/>
<path d="M7122 5824 c-7 -8 -8 -14 -3 -14 10 0 25 19 20 25 -2 1 -10 -3 -17
-11z"/>
<path d="M7152 5797 c-1 -23 1 -38 5 -33 10 9 13 65 4 70 -3 2 -7 -14 -9 -37z"/>
<path d="M6627 5803 c-4 -3 -7 -11 -7 -17 0 -6 5 -5 12 2 6 6 9 14 7 17 -3 3
-9 2 -12 -2z"/>
<path d="M7004 5802 c3 -6 0 -17 -9 -25 -13 -13 -13 -16 1 -21 9 -3 23 -1 32
4 14 9 13 10 -6 5 -21 -6 -23 -5 -13 13 8 15 8 23 -1 28 -6 4 -8 3 -4 -4z"/>
<path d="M7040 5800 c20 -13 33 -13 25 0 -3 6 -14 10 -23 10 -15 0 -15 -2 -2
-10z"/>
<path d="M6126 5787 c3 -10 9 -15 12 -12 3 3 0 11 -7 18 -10 9 -11 8 -5 -6z"/>
<path d="M7090 5789 c0 -5 5 -7 10 -4 6 3 10 8 10 11 0 2 -4 4 -10 4 -5 0 -10
-5 -10 -11z"/>
<path d="M7234 5786 c10 -8 24 -18 30 -21 8 -3 7 -7 -2 -11 -6 -3 -10 -9 -7
-14 7 -11 -73 -42 -104 -40 -44 3 -51 1 -44 -16 5 -14 1 -16 -23 -11 -26 6
-27 5 -7 -5 24 -12 58 -4 48 12 -3 5 1 10 10 10 9 0 14 -4 10 -10 -3 -5 7 -3
22 5 32 17 69 19 78 6 3 -5 -7 -12 -22 -14 -26 -4 -26 -4 5 -6 29 -1 36 6 30
27 -2 4 -6 6 -10 5 -5 -2 -8 1 -8 6 0 5 9 13 20 16 11 4 18 10 15 15 -3 5 -1
11 5 15 5 3 10 -1 10 -9 0 -18 16 -21 25 -6 4 6 15 0 27 -15 10 -14 25 -25 31
-25 7 0 4 5 -5 11 -10 5 -18 17 -18 24 0 14 -11 19 -37 16 -7 -1 -17 8 -23 19
-6 11 -15 18 -20 15 -5 -3 -20 -1 -32 5 -22 10 -22 10 -4 -4z"/>
<path d="M6286 5755 c-13 -20 -14 -25 -2 -25 7 0 16 11 18 25 3 14 4 25 3 25
-2 0 -10 -11 -19 -25z"/>
<path d="M6355 5770 c3 -5 8 -10 11 -10 2 0 4 5 4 10 0 6 -5 10 -11 10 -5 0
-7 -4 -4 -10z"/>
<path d="M6327 5759 c7 -7 15 -10 18 -7 3 3 -2 9 -12 12 -14 6 -15 5 -6 -5z"/>
<path d="M6656 5755 c-9 -26 -7 -32 5 -12 6 10 9 21 6 23 -2 3 -7 -2 -11 -11z"/>
<path d="M7088 5748 c-10 -10 -13 -18 -8 -18 6 0 10 -5 10 -11 0 -5 -4 -8 -9
-5 -5 3 -11 0 -14 -7 -3 -8 1 -14 9 -14 12 0 41 64 32 71 -1 1 -11 -6 -20 -16z"/>
<path d="M7173 5753 c-7 -3 -13 -11 -13 -20 0 -12 2 -12 16 2 18 17 16 25 -3
18z"/>
<path d="M6591 5737 c-16 -16 -14 -27 7 -27 14 0 14 2 3 9 -11 7 -9 10 10 13
19 2 20 5 8 10 -9 3 -22 1 -28 -5z"/>
<path d="M7120 5740 c0 -5 4 -10 9 -10 6 0 13 5 16 10 3 6 -1 10 -9 10 -9 0
-16 -4 -16 -10z"/>
<path d="M5720 5729 c0 -5 5 -7 10 -4 6 3 10 8 10 11 0 2 -4 4 -10 4 -5 0 -10
-5 -10 -11z"/>
<path d="M6078 5713 c7 -3 16 -2 19 1 4 3 -2 6 -13 5 -11 0 -14 -3 -6 -6z"/>
<path d="M7391 5702 c-1 -13 -5 -21 -10 -18 -5 4 -7 -3 -4 -14 3 -11 9 -17 14
-14 5 3 7 10 4 15 -4 5 -2 9 3 9 6 0 13 7 16 16 3 8 2 13 -3 9 -5 -3 -12 1
-14 7 -3 7 -6 3 -6 -10z"/>
<path d="M6370 5706 c0 -2 7 -7 16 -10 8 -3 12 -2 9 4 -6 10 -25 14 -25 6z"/>
<path d="M6726 5702 c-3 -6 -1 -14 5 -17 14 -9 20 -2 10 14 -6 8 -11 9 -15 3z"/>
<path d="M7347 5683 c5 -15 3 -16 -8 -5 -7 6 -24 11 -38 11 -21 -1 -22 -2 -6
-6 11 -3 25 -10 30 -15 7 -8 5 -9 -7 -5 -10 3 -20 2 -23 -3 -4 -6 1 -10 10
-10 9 0 14 -4 10 -9 -3 -5 -1 -12 3 -15 5 -3 14 6 21 20 6 14 16 22 22 18 8
-4 8 0 0 15 -14 25 -23 28 -14 4z"/>
<path d="M6350 5670 c-8 -5 -10 -10 -5 -10 6 0 17 5 25 10 8 5 11 10 5 10 -5
0 -17 -5 -25 -10z"/>
<path d="M7456 5654 c38 -30 56 -31 45 -2 -6 16 -17 23 -41 24 l-33 2 29 -24z
m34 6 c0 -5 -4 -10 -10 -10 -5 0 -10 5 -10 10 0 6 5 10 10 10 6 0 10 -4 10
-10z"/>
<path d="M6620 5660 c0 -5 7 -10 16 -10 8 0 12 5 9 10 -3 6 -10 10 -16 10 -5
0 -9 -4 -9 -10z"/>
<path d="M6706 5655 c4 -8 10 -15 15 -15 4 0 6 7 3 15 -4 8 -10 15 -15 15 -4
0 -6 -7 -3 -15z"/>
<path d="M6746 5651 c-4 -7 -5 -15 -2 -18 9 -9 19 4 14 18 -4 11 -6 11 -12 0z"/>
<path d="M6800 5649 c0 -5 -4 -8 -9 -5 -5 3 -8 -2 -7 -12 1 -11 -5 -16 -19
-15 -11 1 -14 0 -8 -3 7 -3 16 -5 20 -5 5 0 13 -9 18 -19 7 -14 14 -17 25 -10
13 8 13 10 -1 10 -29 0 -30 28 -2 50 24 19 25 20 4 20 -11 0 -21 -5 -21 -11z"/>
<path d="M7176 5636 c7 -18 26 -17 30 2 1 7 0 8 -3 2 -3 -8 -9 -7 -19 1 -12
10 -13 9 -8 -5z"/>
<path d="M6342 5620 c-7 -11 -8 -20 -3 -20 9 0 24 30 18 36 -1 2 -8 -6 -15
-16z"/>
<path d="M7286 5616 c-4 -17 -14 -26 -34 -29 l-27 -4 28 -2 c16 0 30 5 33 13
8 21 33 8 27 -13 -3 -11 2 -21 13 -25 14 -5 15 -4 4 9 -11 13 -10 18 6 31 16
13 16 15 2 10 -11 -3 -23 3 -32 15 -13 20 -14 20 -20 -5z"/>
<path d="M7374 5628 c-4 -7 -3 -8 4 -4 7 4 12 3 12 -2 0 -15 43 -23 55 -10 7
8 6 9 -3 4 -7 -4 -24 -1 -37 8 -17 11 -26 13 -31 4z"/>
<path d="M6650 5620 c-12 -8 -11 -10 8 -10 12 0 22 5 22 10 0 13 -11 13 -30 0z"/>
<path d="M6695 5620 c-3 -5 -1 -10 4 -10 6 0 11 5 11 10 0 6 -2 10 -4 10 -3 0
-8 -4 -11 -10z"/>
<path d="M6820 5614 c0 -14 3 -15 18 -3 9 7 19 15 21 16 2 2 -5 3 -17 3 -14 0
-22 -6 -22 -16z"/>
<path d="M7259 5613 c-13 -16 -12 -17 4 -4 16 13 21 21 13 21 -2 0 -10 -8 -17
-17z"/>
<path d="M5755 5600 c-3 -5 -1 -10 4 -10 6 0 11 5 11 10 0 6 -2 10 -4 10 -3 0
-8 -4 -11 -10z"/>
<path d="M6100 5599 c0 -5 5 -7 10 -4 6 3 10 8 10 11 0 2 -4 4 -10 4 -5 0 -10
-5 -10 -11z"/>
<path d="M6160 5599 c0 -5 5 -7 10 -4 6 3 10 8 10 11 0 2 -4 4 -10 4 -5 0 -10
-5 -10 -11z"/>
<path d="M6195 5599 c-4 -6 -5 -12 -2 -15 2 -3 7 2 10 11 7 17 1 20 -8 4z"/>
<path d="M6375 5601 c-3 -5 -2 -12 3 -15 5 -3 9 1 9 9 0 17 -3 19 -12 6z"/>
<path d="M6850 5601 c0 -6 4 -13 10 -16 6 -3 7 1 4 9 -7 18 -14 21 -14 7z"/>
<path d="M7359 5593 c-13 -16 -12 -17 4 -4 9 7 17 15 17 17 0 8 -8 3 -21 -13z"/>
<path d="M6440 5590 c0 -5 5 -10 11 -10 5 0 7 5 4 10 -3 6 -8 10 -11 10 -2 0
-4 -4 -4 -10z"/>
<path d="M6496 5573 c-4 -10 -4 -14 0 -10 4 4 14 1 22 -6 13 -10 14 -9 3 11
-14 27 -17 27 -25 5z"/>
<path d="M6708 5563 c3 -15 11 -36 17 -46 11 -16 12 -15 10 13 -1 17 -9 38
-17 47 -14 13 -15 12 -10 -14z"/>
<path d="M6738 5585 c-7 -12 17 -37 26 -28 10 10 7 25 -3 19 -5 -4 -11 -1 -13
6 -3 7 -7 8 -10 3z"/>
<path d="M6103 5561 c0 -11 5 -18 9 -15 4 3 5 11 1 19 -7 21 -12 19 -10 -4z"/>
<path d="M6867 5566 c-13 -13 -14 -22 -7 -36 15 -27 29 -33 23 -10 -3 11 -10
20 -15 20 -5 0 -7 4 -3 10 3 5 12 7 19 4 7 -3 19 3 27 13 13 16 12 17 -3 5
-12 -10 -17 -10 -20 -1 -3 8 -9 6 -21 -5z"/>
<path d="M7217 5569 c7 -7 15 -10 18 -7 3 3 -2 9 -12 12 -14 6 -15 5 -6 -5z"/>
<path d="M6167 5559 c7 -7 15 -10 18 -7 3 3 -2 9 -12 12 -14 6 -15 5 -6 -5z"/>
<path d="M6360 5545 c0 -8 4 -15 10 -15 5 0 7 7 4 15 -4 8 -8 15 -10 15 -2 0
-4 -7 -4 -15z"/>
<path d="M6433 5534 c-3 -8 -3 -18 1 -21 3 -4 6 2 6 13 0 14 2 16 9 5 5 -8 11
-9 15 -3 3 5 -1 13 -9 16 -9 3 -18 -1 -22 -10z"/>
<path d="M6901 5510 c-10 -22 -15 -40 -10 -40 5 0 11 11 15 25 3 14 9 25 13
25 4 0 8 7 8 15 0 23 -5 18 -26 -25z"/>
<path d="M6940 5539 c0 -5 5 -7 10 -4 6 3 10 8 10 11 0 2 -4 4 -10 4 -5 0 -10
-5 -10 -11z"/>
<path d="M5920 5530 c-8 -5 -12 -12 -9 -15 4 -3 12 1 19 10 14 17 11 19 -10 5z"/>
<path d="M6123 5525 c-8 -23 0 -24 20 -3 14 15 15 18 2 18 -9 0 -18 -7 -22
-15z"/>
<path d="M6175 5530 c-3 -5 -1 -10 4 -10 6 0 11 5 11 10 0 6 -2 10 -4 10 -3 0
-8 -4 -11 -10z"/>
<path d="M6494 5519 c-19 -22 -19 -22 4 -8 12 8 22 17 22 21 0 12 -6 9 -26
-13z"/>
<path d="M6760 5530 c8 -5 20 -10 25 -10 6 0 3 5 -5 10 -8 5 -19 10 -25 10 -5
0 -3 -5 5 -10z"/>
<path d="M5942 5518 c-7 -7 -12 -16 -12 -21 0 -5 7 -1 16 8 9 9 14 18 12 20
-2 3 -10 -1 -16 -7z"/>
<path d="M6396 5522 c-3 -5 1 -9 9 -9 8 0 12 4 9 9 -3 4 -7 8 -9 8 -2 0 -6 -4
-9 -8z"/>
<path d="M6956 5504 c-8 -22 -4 -25 11 -9 7 8 9 16 4 19 -5 3 -12 -1 -15 -10z"/>
<path d="M6225 5501 c-3 -5 -18 -7 -32 -5 -15 3 -25 2 -22 -1 15 -14 57 -14
63 0 6 17 0 20 -9 6z"/>
<path d="M6770 5489 c0 -5 5 -7 10 -4 6 3 10 8 10 11 0 2 -4 4 -10 4 -5 0 -10
-5 -10 -11z"/>
<path d="M6840 5483 c0 -10 4 -14 8 -8 4 6 11 13 16 18 5 4 2 7 -7 7 -10 0
-17 -8 -17 -17z"/>
<path d="M5970 5480 c-8 -5 -10 -10 -5 -10 6 0 17 5 25 10 8 5 11 10 5 10 -5
0 -17 -5 -25 -10z"/>
<path d="M6392 5470 c0 -14 2 -19 5 -12 2 6 2 18 0 25 -3 6 -5 1 -5 -13z"/>
<path d="M6916 5475 c-3 -8 -1 -15 4 -15 13 0 22 18 11 24 -5 3 -11 -1 -15 -9z"/>
<path d="M6961 5470 c-13 -11 -19 -20 -13 -20 10 0 42 27 42 36 0 7 -4 5 -29
-16z"/>
<path d="M6237 5473 c-4 -3 -7 -11 -7 -17 0 -6 5 -5 12 2 6 6 9 14 7 17 -3 3
-9 2 -12 -2z"/>
<path d="M6420 5470 c8 -5 20 -10 25 -10 6 0 3 5 -5 10 -8 5 -19 10 -25 10 -5
0 -3 -5 5 -10z"/>
<path d="M6810 5461 c0 -5 7 -11 14 -14 10 -4 13 -1 9 9 -6 15 -23 19 -23 5z"/>
<path d="M6118 5453 c7 -3 16 -2 19 1 4 3 -2 6 -13 5 -11 0 -14 -3 -6 -6z"/>
<path d="M6554 5453 c3 -6 -2 -16 -11 -22 -16 -9 -16 -10 -1 -11 23 0 33 19
18 33 -10 9 -11 9 -6 0z"/>
<path d="M6465 5440 c-3 -6 1 -7 9 -4 18 7 21 14 7 14 -6 0 -13 -4 -16 -10z"/>
<path d="M6593 5421 c-4 -16 -12 -19 -41 -15 -21 2 -31 2 -24 -2 6 -3 10 -10
6 -15 -3 -5 0 -9 5 -9 6 0 11 -8 12 -17 0 -14 2 -14 6 -4 3 8 19 26 34 39 30
25 37 42 18 42 -6 0 -13 -9 -16 -19z"/>
<path d="M6910 5430 c8 -4 26 -11 39 -15 20 -6 22 -5 11 6 -7 8 -24 15 -38 16
-18 1 -22 -1 -12 -7z"/>
<path d="M6480 5420 c-8 -5 -10 -10 -5 -10 6 0 17 5 25 10 8 5 11 10 5 10 -5
0 -17 -5 -25 -10z"/>
<path d="M6800 5420 c0 -5 5 -10 11 -10 5 0 7 5 4 10 -3 6 -8 10 -11 10 -2 0
-4 -4 -4 -10z"/>
<path d="M7010 5406 c5 -13 7 -27 4 -30 -2 -3 0 -3 6 2 11 9 2 52 -11 52 -5 0
-4 -11 1 -24z"/>
<path d="M6210 5405 c-7 -8 -17 -12 -24 -8 -6 4 -5 -1 3 -10 7 -9 21 -17 30
-16 10 0 11 2 4 6 -9 3 -10 10 -3 24 13 23 7 25 -10 4z"/>
<path d="M6440 5411 c0 -6 4 -13 10 -16 6 -3 7 1 4 9 -7 18 -14 21 -14 7z"/>
<path d="M6900 5399 c0 -5 5 -7 10 -4 6 3 10 8 10 11 0 2 -4 4 -10 4 -5 0 -10
-5 -10 -11z"/>
<path d="M6942 5386 c7 -8 17 -12 22 -9 4 3 2 9 -5 14 -22 13 -31 11 -17 -5z"/>
<path d="M6851 5374 c0 -11 3 -14 6 -6 3 7 2 16 -1 19 -3 4 -6 -2 -5 -13z"/>
<path d="M7040 5381 c0 -5 12 -11 27 -14 26 -5 26 -4 8 9 -22 16 -35 18 -35 5z"/>
<path d="M6240 5375 c0 -3 10 -9 21 -13 20 -8 20 -9 4 -25 -15 -16 -15 -17 3
-17 18 0 21 10 13 53 -1 8 -41 10 -41 2z"/>
<path d="M6597 5362 c2 -10 11 -19 19 -19 11 0 11 4 -3 19 -9 10 -17 18 -19
18 -1 0 0 -8 3 -18z"/>
<path d="M6140 5350 c20 -13 33 -13 25 0 -3 6 -14 10 -23 10 -15 0 -15 -2 -2
-10z"/>
<path d="M6210 5349 c0 -6 -6 -9 -13 -6 -8 3 -14 -1 -14 -8 0 -10 5 -11 19 -4
16 9 25 29 13 29 -3 0 -5 -5 -5 -11z"/>
<path d="M6578 5350 c-2 -6 -17 -12 -33 -14 -16 -2 -31 -8 -33 -14 -3 -9 5 -9
30 0 37 12 54 25 46 33 -3 4 -8 1 -10 -5z"/>
<path d="M6980 5340 c-8 -5 -12 -12 -9 -15 4 -3 12 1 19 10 14 17 11 19 -10 5z"/>
<path d="M6480 5320 c6 -11 13 -20 16 -20 2 0 0 9 -6 20 -6 11 -13 20 -16 20
-2 0 0 -9 6 -20z"/>
<path d="M6880 5327 c0 -10 8 -17 18 -17 9 0 13 4 7 8 -5 4 -13 11 -17 16 -5
5 -8 2 -8 -7z"/>
<path d="M6200 5309 c0 -5 5 -7 10 -4 6 3 10 8 10 11 0 2 -4 4 -10 4 -5 0 -10
-5 -10 -11z"/>
<path d="M6255 5300 c-8 -13 -1 -24 14 -19 6 3 7 10 2 18 -6 10 -10 10 -16 1z"/>
<path d="M6545 5300 c3 -5 8 -10 11 -10 2 0 4 5 4 10 0 6 -5 10 -11 10 -5 0
-7 -4 -4 -10z"/>
<path d="M6682 5296 c7 -8 15 -12 17 -11 5 6 -10 25 -20 25 -5 0 -4 -6 3 -14z"/>
<path d="M6610 5296 c0 -2 7 -7 16 -10 8 -3 12 -2 9 4 -6 10 -25 14 -25 6z"/>
<path d="M6475 5280 c-3 -5 -1 -10 4 -10 6 0 11 5 11 10 0 6 -2 10 -4 10 -3 0
-8 -4 -11 -10z"/>
<path d="M6310 5260 c0 -11 4 -20 9 -20 5 0 7 9 4 20 -3 11 -7 20 -9 20 -2 0
-4 -9 -4 -20z"/>
<path d="M6530 5274 c0 -2 9 -8 19 -13 14 -8 20 -7 24 2 3 7 -5 13 -19 13 -13
1 -24 0 -24 -2z"/>
<path d="M6585 5248 c-26 -20 -26 -22 -9 -29 27 -11 34 -10 34 1 0 6 -7 10
-16 10 -8 0 -12 5 -9 11 4 6 14 8 22 5 8 -3 11 -1 8 4 -3 6 -1 10 4 10 10 0
15 -14 12 -33 -1 -5 3 -6 9 -2 15 9 12 32 -6 39 -21 8 -18 9 -49 -16z"/>
<path d="M6500 5226 c0 -9 5 -16 10 -16 6 0 10 4 10 9 0 6 -4 13 -10 16 -5 3
-10 -1 -10 -9z"/>
<path d="M6650 5204 c0 -8 5 -12 10 -9 6 3 10 10 10 16 0 5 -4 9 -10 9 -5 0
-10 -7 -10 -16z"/>
<path d="M5560 6540 c0 -6 7 -10 15 -10 8 0 15 2 15 4 0 2 -7 6 -15 10 -8 3
-15 1 -15 -4z"/>
<path d="M5581 6506 c-10 -12 -8 -13 8 -9 12 3 18 9 15 14 -7 12 -10 11 -23
-5z"/>
<path d="M4935 6140 c-3 -5 -1 -10 4 -10 6 0 11 5 11 10 0 6 -2 10 -4 10 -3 0
-8 -4 -11 -10z"/>
<path d="M4990 5819 c0 -5 5 -7 10 -4 6 3 10 8 10 11 0 2 -4 4 -10 4 -5 0 -10
-5 -10 -11z"/>
<path d="M5020 5816 c0 -2 7 -7 16 -10 8 -3 12 -2 9 4 -6 10 -25 14 -25 6z"/>
<path d="M4990 5780 c-8 -5 -12 -11 -10 -14 3 -2 14 2 24 10 22 15 10 19 -14
4z"/>
<path d="M4792 5714 c-7 -8 -8 -14 -3 -14 10 0 25 19 20 25 -2 1 -10 -3 -17
-11z"/>
<path d="M4715 5690 c-3 -5 -1 -10 4 -10 6 0 11 5 11 10 0 6 -2 10 -4 10 -3 0
-8 -4 -11 -10z"/>
<path d="M5800 5260 c-9 -6 -10 -10 -3 -10 6 0 15 5 18 10 8 12 4 12 -15 0z"/>
<path d="M5955 5201 c-3 -6 -1 -11 5 -11 7 0 9 -9 6 -22 -3 -13 -3 -17 0 -10
3 6 10 10 15 6 13 -8 10 8 -5 29 -9 12 -16 14 -21 8z"/>
<path d="M6014 5159 c-5 -9 -2 -10 9 -6 9 3 18 2 21 -4 2 -5 3 -4 2 3 -3 17
-23 21 -32 7z"/>
<path d="M6110 5071 c0 -5 5 -13 10 -16 6 -3 10 -2 10 4 0 5 -4 13 -10 16 -5
3 -10 2 -10 -4z"/>
<path d="M5977 5059 c7 -7 15 -10 18 -7 3 3 -2 9 -12 12 -14 6 -15 5 -6 -5z"/>
<path d="M5741 5034 c-6 -15 -9 -29 -7 -32 3 -2 10 8 16 23 14 36 7 43 -9 9z"/>
<path d="M6001 5024 c0 -11 3 -14 6 -6 3 7 2 16 -1 19 -3 4 -6 -2 -5 -13z"/>
<path d="M6025 5030 c3 -5 8 -10 11 -10 2 0 4 5 4 10 0 6 -5 10 -11 10 -5 0
-7 -4 -4 -10z"/>
<path d="M5891 5004 c0 -11 3 -14 6 -6 3 7 2 16 -1 19 -3 4 -6 -2 -5 -13z"/>
<path d="M6040 4990 c-24 -15 -7 -18 20 -3 14 7 18 13 10 13 -8 0 -22 -4 -30
-10z"/>
<path d="M4303 4966 c44 -30 77 -48 77 -42 0 6 -95 66 -105 66 -4 0 8 -11 28
-24z"/>
<path d="M5970 4979 c0 -5 5 -7 10 -4 6 3 10 8 10 11 0 2 -4 4 -10 4 -5 0 -10
-5 -10 -11z"/>
<path d="M6000 4980 c0 -5 5 -10 11 -10 5 0 7 5 4 10 -3 6 -8 10 -11 10 -2 0
-4 -4 -4 -10z"/>
<path d="M5878 4973 c7 -3 16 -2 19 1 4 3 -2 6 -13 5 -11 0 -14 -3 -6 -6z"/>
<path d="M6053 4964 c-15 -16 -16 -24 -4 -24 8 0 24 30 19 35 -2 2 -9 -3 -15
-11z"/>
<path d="M6097 4964 c3 -7 9 -14 14 -14 14 0 10 17 -5 23 -10 4 -13 1 -9 -9z"/>
<path d="M6025 4940 c2 -14 5 -28 5 -32 0 -12 30 -10 30 2 0 5 -6 13 -14 17
-7 4 -16 15 -20 23 -3 8 -4 4 -1 -10z"/>
<path d="M4128 4943 c7 -3 16 -2 19 1 4 3 -2 6 -13 5 -11 0 -14 -3 -6 -6z"/>
<path d="M6006 4917 c3 -10 9 -15 12 -12 3 3 0 11 -7 18 -10 9 -11 8 -5 -6z"/>
<path d="M6107 4883 c-4 -3 -7 -11 -7 -17 0 -6 5 -5 12 2 6 6 9 14 7 17 -3 3
-9 2 -12 -2z"/>
<path d="M3985 4860 c3 -5 11 -10 16 -10 6 0 7 5 4 10 -3 6 -11 10 -16 10 -6
0 -7 -4 -4 -10z"/>
<path d="M5945 4830 c3 -5 8 -10 11 -10 2 0 4 5 4 10 0 6 -5 10 -11 10 -5 0
-7 -4 -4 -10z"/>
<path d="M3988 4823 c7 -3 16 -2 19 1 4 3 -2 6 -13 5 -11 0 -14 -3 -6 -6z"/>
<path d="M6009 4817 c5 -5 17 -5 28 2 16 9 15 10 -9 9 -16 -2 -24 -6 -19 -11z"/>
<path d="M4095 4729 c-4 -6 -5 -12 -2 -15 2 -3 7 2 10 11 7 17 1 20 -8 4z"/>
<path d="M4060 4719 c0 -5 5 -7 10 -4 6 3 10 8 10 11 0 2 -4 4 -10 4 -5 0 -10
-5 -10 -11z"/>
<path d="M5710 4720 c0 -5 5 -10 11 -10 5 0 7 5 4 10 -3 6 -8 10 -11 10 -2 0
-4 -4 -4 -10z"/>
<path d="M5908 4713 c7 -3 16 -2 19 1 4 3 -2 6 -13 5 -11 0 -14 -3 -6 -6z"/>
<path d="M4051 4684 c0 -11 3 -14 6 -6 3 7 2 16 -1 19 -3 4 -6 -2 -5 -13z"/>
<path d="M3955 4640 c-3 -5 -13 -7 -23 -4 -14 5 -14 3 2 -10 11 -9 25 -16 30
-16 6 0 4 5 -4 10 -13 9 -7 14 13 11 4 0 7 4 7 9 0 13 -17 13 -25 0z"/>
<path d="M4066 4635 c4 -8 8 -15 10 -15 2 0 4 7 4 15 0 8 -4 15 -10 15 -5 0
-7 -7 -4 -15z"/>
<path d="M4015 4596 c-4 -24 -5 -52 -2 -62 3 -11 5 1 6 25 1 38 3 42 16 31 9
-7 18 -10 22 -6 3 3 1 6 -6 6 -7 0 -9 5 -6 10 3 6 1 10 -5 10 -7 0 -10 7 -6
15 3 8 1 15 -4 15 -5 0 -12 -20 -15 -44z"/>
<path d="M4100 4629 c0 -5 5 -7 10 -4 6 3 10 8 10 11 0 2 -4 4 -10 4 -5 0 -10
-5 -10 -11z"/>
<path d="M5675 4630 c3 -5 8 -10 11 -10 2 0 4 5 4 10 0 6 -5 10 -11 10 -5 0
-7 -4 -4 -10z"/>
<path d="M5996 4631 c-15 -6 -16 -10 -7 -16 8 -4 16 -2 21 5 6 10 8 10 12 0 4
-14 38 -24 38 -12 0 4 -5 14 -10 22 -8 13 -10 12 -10 -4 0 -18 -1 -18 -12 -4
-9 10 -20 13 -32 9z"/>
<path d="M4110 4595 c-10 -12 -10 -15 4 -15 9 0 16 7 16 15 0 8 -2 15 -4 15
-2 0 -9 -7 -16 -15z"/>
<path d="M5967 4595 c-9 -22 10 -28 35 -11 12 9 17 16 11 16 -7 0 -15 -4 -18
-10 -10 -16 -25 -12 -19 5 4 8 4 15 1 15 -3 0 -7 -7 -10 -15z"/>
<path d="M3970 4590 c-9 -6 -10 -10 -3 -10 6 0 15 5 18 10 8 12 4 12 -15 0z"/>
<path d="M5930 4567 c0 -9 6 -17 13 -17 8 0 7 -4 -3 -10 -9 -6 -10 -10 -3 -10
19 0 22 14 7 35 -12 16 -14 17 -14 2z"/>
<path d="M5980 4549 c-11 -8 -12 -12 -2 -16 6 -2 9 -10 6 -15 -4 -7 -2 -8 5
-4 6 4 8 12 5 18 -4 6 0 14 7 19 8 5 10 9 4 9 -5 0 -17 -5 -25 -11z"/>
<path d="M5890 4539 c0 -5 5 -7 10 -4 6 3 10 8 10 11 0 2 -4 4 -10 4 -5 0 -10
-5 -10 -11z"/>
<path d="M6016 4525 c-5 -14 30 -42 41 -32 2 3 -5 8 -16 12 -12 4 -18 12 -14
21 3 7 3 14 0 14 -3 0 -7 -7 -11 -15z"/>
<path d="M5525 4510 c3 -5 11 -10 16 -10 6 0 7 5 4 10 -3 6 -11 10 -16 10 -6
0 -7 -4 -4 -10z"/>
<path d="M5935 4510 c-16 -7 -17 -9 -3 -9 9 -1 20 4 23 9 7 11 7 11 -20 0z"/>
<path d="M4290 4480 c0 -5 5 -10 11 -10 5 0 7 5 4 10 -3 6 -8 10 -11 10 -2 0
-4 -4 -4 -10z"/>
<path d="M5065 4480 c3 -5 8 -10 11 -10 2 0 4 5 4 10 0 6 -5 10 -11 10 -5 0
-7 -4 -4 -10z"/>
<path d="M5970 4469 c6 -11 17 -15 30 -12 11 3 20 8 20 10 0 3 -9 3 -21 0 -14
-4 -19 -2 -16 7 3 7 -1 13 -8 13 -10 0 -11 -5 -5 -18z"/>
<path d="M5855 4470 c-3 -5 -1 -10 4 -10 6 0 11 5 11 10 0 6 -2 10 -4 10 -3 0
-8 -4 -11 -10z"/>
<path d="M5936 4465 c-3 -8 -1 -15 4 -15 6 0 10 7 10 15 0 8 -2 15 -4 15 -2 0
-6 -7 -10 -15z"/>
<path d="M5890 4440 c0 -5 5 -10 11 -10 5 0 7 5 4 10 -3 6 -8 10 -11 10 -2 0
-4 -4 -4 -10z"/>
<path d="M5570 4410 c0 -5 5 -10 10 -10 6 0 10 5 10 10 0 6 -4 10 -10 10 -5 0
-10 -4 -10 -10z"/>
<path d="M5821 4371 c-8 -5 -9 -11 -3 -15 5 -3 12 1 16 9 6 17 6 18 -13 6z"/>
<path d="M5930 4330 c0 -5 5 -10 11 -10 5 0 7 5 4 10 -3 6 -8 10 -11 10 -2 0
-4 -4 -4 -10z"/>
<path d="M5890 4315 c-7 -9 -8 -15 -2 -15 5 0 12 7 16 15 3 8 4 15 2 15 -2 0
-9 -7 -16 -15z"/>
<path d="M5115 4290 c-3 -5 -1 -10 4 -10 6 0 11 5 11 10 0 6 -2 10 -4 10 -3 0
-8 -4 -11 -10z"/>
<path d="M5368 4278 c-16 -5 -28 -13 -28 -17 0 -11 49 -1 56 11 9 15 1 16 -28
6z"/>
<path d="M5900 4261 c0 -9 33 -21 58 -21 10 0 10 3 -2 15 -16 16 -56 21 -56 6z"/>
<path d="M5292 4230 c-32 -30 -27 -34 8 -8 17 12 30 23 30 25 0 9 -19 1 -38
-17z"/>
<path d="M4231 4194 c0 -11 3 -14 6 -6 3 7 2 16 -1 19 -3 4 -6 -2 -5 -13z"/>
<path d="M5500 4199 c0 -5 5 -7 10 -4 6 3 10 8 10 11 0 2 -4 4 -10 4 -5 0 -10
-5 -10 -11z"/>
<path d="M5060 4196 c0 -2 7 -6 15 -10 8 -3 15 -1 15 4 0 6 -7 10 -15 10 -8 0
-15 -2 -15 -4z"/>
<path d="M5257 4183 c-3 -4 -8 -25 -12 -46 -6 -30 -10 -35 -21 -26 -11 9 -14
8 -14 -5 0 -9 6 -16 14 -16 11 0 14 -10 11 -37 l-5 -38 9 35 c25 97 33 157 18
133z"/>
<path d="M5105 4170 c-19 -8 -19 -9 3 -9 12 -1 22 4 22 9 0 6 -1 10 -2 9 -2 0
-12 -4 -23 -9z"/>
<path d="M5215 4150 c-3 -5 -1 -10 4 -10 6 0 11 5 11 10 0 6 -2 10 -4 10 -3 0
-8 -4 -11 -10z"/>
<path d="M5986 4133 c-6 -14 -5 -15 5 -6 7 7 10 15 7 18 -3 3 -9 -2 -12 -12z"/>
<path d="M5950 4119 c0 -5 5 -7 10 -4 6 3 10 8 10 11 0 2 -4 4 -10 4 -5 0 -10
-5 -10 -11z"/>
<path d="M5095 4110 c-3 -5 -1 -10 4 -10 6 0 11 5 11 10 0 6 -2 10 -4 10 -3 0
-8 -4 -11 -10z"/>
<path d="M5640 4115 c0 -5 5 -17 10 -25 5 -8 10 -10 10 -5 0 6 -5 17 -10 25
-5 8 -10 11 -10 5z"/>
<path d="M6046 4107 c3 -10 9 -15 12 -12 3 3 0 11 -7 18 -10 9 -11 8 -5 -6z"/>
<path d="M4901 4073 c-12 -14 -12 -15 0 -11 8 3 20 -2 27 -11 12 -14 13 -14 8
2 -3 10 -6 23 -6 28 0 14 -13 10 -29 -8z"/>
<path d="M5260 4074 c0 -8 5 -12 10 -9 6 3 10 1 10 -4 0 -6 -5 -11 -12 -11 -6
0 -8 -3 -5 -6 4 -4 13 -1 21 6 13 10 13 14 1 26 -18 18 -25 18 -25 -2z"/>
<path d="M5356 4061 c-2 -3 2 -14 9 -25 14 -19 35 -14 35 8 0 14 -37 29 -44
17z m34 -23 c0 -6 -6 -5 -15 2 -8 7 -15 14 -15 16 0 2 7 1 15 -2 8 -4 15 -11
15 -16z"/>
<path d="M4840 4050 c0 -5 5 -10 11 -10 5 0 7 5 4 10 -3 6 -8 10 -11 10 -2 0
-4 -4 -4 -10z"/>
<path d="M4786 4018 c3 -4 9 -8 15 -8 5 0 9 4 9 8 0 5 -7 9 -15 9 -8 0 -12 -4
-9 -9z"/>
<path d="M5335 4020 c-3 -5 1 -10 9 -10 9 0 16 5 16 10 0 6 -4 10 -9 10 -6 0
-13 -4 -16 -10z"/>
<path d="M4072 3923 c-6 -2 -10 -9 -6 -14 8 -14 21 -11 21 6 0 8 -1 15 -1 14
-1 0 -7 -3 -14 -6z"/>
<path d="M4097 3896 c-3 -8 1 -17 9 -20 22 -9 23 -8 17 14 -6 23 -19 26 -26 6z"/>
<path d="M5100 3864 c0 -8 5 -12 10 -9 6 4 8 11 5 16 -9 14 -15 11 -15 -7z"/>
<path d="M4080 3866 c0 -2 7 -12 16 -20 17 -18 39 -22 29 -6 -7 11 -45 33 -45
26z"/>
<path d="M5145 3860 c3 -5 8 -10 11 -10 2 0 4 5 4 10 0 6 -5 10 -11 10 -5 0
-7 -4 -4 -10z"/>
<path d="M4067 3826 c-3 -6 4 -13 14 -13 22 -2 25 12 5 20 -8 3 -16 0 -19 -7z"/>
<path d="M4086 3792 c-2 -4 7 -13 21 -19 25 -12 25 -12 8 7 -20 22 -22 23 -29
12z"/>
<path d="M4063 3765 c4 -9 7 -19 7 -21 0 -3 5 -2 10 1 6 3 10 2 10 -3 0 -6 -7
-13 -16 -16 -13 -5 -15 -14 -10 -44 3 -20 8 -68 9 -107 4 -80 28 -138 77 -179
48 -40 57 -31 12 12 -51 49 -68 83 -76 155 -5 44 -3 57 6 51 8 -5 9 -2 5 10
-4 10 -3 15 3 11 6 -3 8 -18 5 -33 -3 -15 -2 -21 1 -14 5 10 9 10 20 1 12 -10
14 -4 13 32 -1 42 -14 102 -19 87 -6 -21 -5 -34 2 -44 6 -8 3 -11 -9 -10 -26
2 -35 20 -15 29 13 5 11 6 -5 3 -18 -3 -23 0 -22 17 0 12 3 16 6 10 7 -18 30
-16 37 3 4 10 2 13 -6 8 -7 -5 -9 -2 -5 9 4 10 -3 21 -20 32 -25 16 -26 16
-20 0z"/>
<path d="M5075 3624 c-51 -26 -63 -44 -91 -128 -14 -44 -44 -120 -65 -169 -33
-73 -39 -98 -39 -153 0 -64 2 -68 39 -105 34 -34 45 -39 85 -39 32 0 52 6 65
19 23 23 41 81 41 130 0 23 3 32 10 25 11 -11 17 -140 7 -150 -4 -4 -2 -13 4
-20 6 -7 7 -19 3 -26 -5 -7 -7 -23 -5 -35 2 -16 -3 -23 -14 -23 -12 0 -15 -5
-11 -16 3 -9 6 -25 6 -37 0 -18 2 -19 10 -7 8 12 13 13 29 3 15 -10 22 -9 34
5 8 9 18 27 21 39 5 15 12 20 24 17 13 -5 14 -4 3 4 -8 5 -11 18 -7 29 5 14 0
23 -16 31 -21 10 -20 11 15 11 48 1 87 21 122 63 25 30 27 38 23 98 -4 49 -16
87 -47 155 -24 50 -52 114 -63 144 -31 82 -55 117 -92 135 -42 20 -53 20 -91
0z m65 -684 c0 -5 -8 -10 -17 -10 -15 0 -16 2 -3 10 19 12 20 12 20 0z"/>
<path d="M4855 3610 c-3 -5 -2 -10 4 -10 5 0 13 5 16 10 3 6 2 10 -4 10 -5 0
-13 -4 -16 -10z"/>
<path d="M4045 3561 c4 -15 2 -21 -9 -21 -8 0 -13 -6 -11 -12 11 -32 13 -68 3
-68 -6 0 -6 -6 2 -15 7 -9 21 -13 31 -10 14 5 17 2 13 -8 -3 -10 2 -18 15 -22
12 -3 19 -11 16 -16 -4 -5 -1 -9 4 -9 16 0 13 16 -4 34 -9 8 -15 18 -15 21 2
22 -15 54 -31 58 -10 3 -19 13 -18 24 0 17 1 17 8 -1 5 -13 10 -16 14 -9 4 7
3 14 -2 17 -5 3 -7 15 -4 25 3 10 -1 22 -7 26 -9 5 -10 1 -5 -14z m25 -96 c7
-9 8 -15 2 -15 -5 0 -12 7 -16 15 -3 8 -4 15 -2 15 2 0 9 -7 16 -15z"/>
<path d="M4850 3570 c0 -5 5 -10 10 -10 6 0 10 5 10 10 0 6 -4 10 -10 10 -5 0
-10 -4 -10 -10z"/>
<path d="M4837 3543 c-4 -3 -7 -11 -7 -17 0 -8 3 -8 8 0 5 8 13 5 26 -7 11
-11 14 -19 8 -19 -6 0 -9 -7 -5 -17 4 -11 3 -14 -5 -9 -8 5 -10 2 -6 -9 4 -9
10 -13 14 -8 14 14 15 47 2 71 -13 22 -23 27 -35 15z"/>
<path d="M4770 3481 c0 -6 5 -13 10 -16 6 -3 10 1 10 9 0 9 -4 16 -10 16 -5 0
-10 -4 -10 -9z"/>
<path d="M4805 3480 c-3 -6 1 -7 9 -4 18 7 21 14 7 14 -6 0 -13 -4 -16 -10z"/>
<path d="M3880 3466 c0 -2 9 -6 20 -9 11 -3 18 -1 14 4 -5 9 -34 13 -34 5z"/>
<path d="M4796 3443 c-6 -14 -5 -15 5 -6 7 7 10 15 7 18 -3 3 -9 -2 -12 -12z"/>
<path d="M3996 3442 c-2 -4 -1 -14 5 -22 7 -12 9 -10 9 8 0 23 -5 28 -14 14z"/>
<path d="M4821 3434 c0 -11 3 -14 6 -6 3 7 2 16 -1 19 -3 4 -6 -2 -5 -13z"/>
<path d="M4021 3418 c0 -9 4 -20 9 -23 6 -4 8 -11 5 -16 -4 -5 1 -16 9 -25 9
-8 16 -12 16 -7 0 5 8 9 19 10 14 1 17 -3 13 -19 -4 -15 -2 -19 7 -14 7 5 10
11 7 14 -3 3 -1 11 5 19 9 10 8 13 -5 13 -9 0 -16 7 -16 15 0 8 -4 15 -9 15
-5 0 -7 -10 -4 -22 4 -22 4 -22 -11 -4 -8 10 -13 24 -9 29 4 6 0 8 -10 4 -10
-4 -17 0 -20 11 -4 16 -5 16 -6 0z"/>
<path d="M4278 3403 c7 -3 16 -2 19 1 4 3 -2 6 -13 5 -11 0 -14 -3 -6 -6z"/>
<path d="M4140 3370 c0 -9 8 -12 26 -9 4 0 11 -5 16 -13 8 -11 9 -10 6 1 -5
17 -48 35 -48 21z"/>
<path d="M4520 3376 c0 -2 7 -9 15 -16 9 -7 15 -8 15 -2 0 5 -7 12 -15 16 -8
3 -15 4 -15 2z"/>
<path d="M4126 3341 c-3 -5 3 -11 15 -14 16 -4 18 -3 8 9 -13 16 -16 17 -23 5z"/>
<path d="M4515 3330 c-3 -5 -2 -10 4 -10 5 0 13 5 16 10 3 6 2 10 -4 10 -5 0
-13 -4 -16 -10z"/>
<path d="M4725 3281 c-4 -13 -4 -25 -1 -28 3 -4 6 -1 6 6 0 7 5 9 10 6 12 -8
13 5 1 24 -7 11 -10 9 -16 -8z"/>
<path d="M4840 3289 c0 -5 5 -7 10 -4 6 3 10 8 10 11 0 2 -4 4 -10 4 -5 0 -10
-5 -10 -11z"/>
<path d="M4836 3205 c7 -18 -7 -20 -26 -2 -8 6 -4 0 9 -15 14 -16 25 -28 26
-28 1 0 2 14 3 30 0 17 -3 30 -8 30 -5 0 -7 -7 -4 -15z"/>
<path d="M4660 3150 c0 -5 5 -10 11 -10 5 0 7 5 4 10 -3 6 -8 10 -11 10 -2 0
-4 -4 -4 -10z"/>
<path d="M4717 3134 c-14 -14 -7 -30 15 -31 13 -1 18 1 12 5 -6 4 -13 13 -15
20 -3 7 -8 10 -12 6z"/>
<path d="M4686 3112 c2 -3 -1 -11 -7 -19 -8 -9 -8 -13 -1 -13 16 0 26 20 15
30 -6 4 -8 5 -7 2z"/>
<path d="M4847 3103 c-3 -5 -8 -22 -11 -39 -5 -24 -3 -33 9 -38 12 -4 14 -2 6
11 -6 12 -5 26 5 45 8 15 10 28 5 28 -5 0 -12 -3 -14 -7z"/>
<path d="M4678 3043 c-20 -23 -31 -70 -18 -78 6 -4 8 -10 5 -15 -3 -4 3 -14
12 -21 15 -12 16 -12 11 8 -3 12 -1 24 6 27 6 2 3 5 -6 5 -10 1 -18 6 -18 12
0 5 4 8 8 5 11 -7 31 49 23 63 -5 8 -12 6 -23 -6z"/>
<path d="M4885 3031 c-3 -5 0 -13 6 -17 7 -4 9 -3 5 4 -3 5 0 13 6 15 9 4 10
6 1 6 -6 1 -14 -3 -18 -8z"/>
<path d="M4825 3010 c-3 -5 -1 -10 4 -10 6 0 11 5 11 10 0 6 -2 10 -4 10 -3 0
-8 -4 -11 -10z"/>
<path d="M4995 3000 c4 -6 11 -8 16 -5 14 9 11 15 -7 15 -8 0 -12 -5 -9 -10z"/>
<path d="M4920 2991 c0 -9 30 -24 36 -18 2 1 -6 8 -16 15 -11 7 -20 8 -20 3z"/>
<path d="M5021 2978 c0 -7 4 -22 9 -33 7 -16 9 -14 7 13 -1 17 -5 32 -9 32 -4
0 -8 -6 -7 -12z"/>
<path d="M4977 2967 c-4 -10 -11 -16 -16 -12 -5 3 -12 1 -16 -5 -6 -9 8 -14
28 -11 5 1 6 -8 2 -19 -7 -21 -6 -21 14 -3 12 9 21 24 21 33 0 13 -2 13 -9 1
-7 -11 -10 -9 -13 10 -3 21 -4 22 -11 6z"/>
<path d="M4675 2899 c-11 -16 -1 -19 13 -3 7 8 8 14 3 14 -5 0 -13 -5 -16 -11z"/>
<path d="M5213 2857 c-8 -16 -9 -29 -3 -32 6 -4 10 0 10 8 0 9 8 14 18 12 9
-1 12 0 5 2 -6 2 -13 12 -15 21 -2 11 -6 9 -15 -11z"/>
<path d="M5327 2869 c7 -7 15 -10 18 -7 3 3 -2 9 -12 12 -14 6 -15 5 -6 -5z"/>
<path d="M5270 2861 c0 -5 5 -13 10 -16 6 -3 10 -2 10 4 0 5 -4 13 -10 16 -5
3 -10 2 -10 -4z"/>
<path d="M4865 2800 c-3 -5 -1 -10 4 -10 6 0 11 5 11 10 0 6 -2 10 -4 10 -3 0
-8 -4 -11 -10z"/>
<path d="M5127 2783 c-10 -10 -8 -23 4 -23 5 0 8 4 5 9 -4 5 0 12 6 14 7 3 8
6 2 6 -6 1 -14 -2 -17 -6z"/>
<path d="M5270 2764 c0 -14 4 -23 10 -19 6 3 10 15 10 26 0 10 -4 19 -10 19
-5 0 -10 -12 -10 -26z"/>
<path d="M5125 2740 c-3 -5 -1 -10 4 -10 6 0 11 5 11 10 0 6 -2 10 -4 10 -3 0
-8 -4 -11 -10z"/>
<path d="M4651 2724 c0 -11 3 -14 6 -6 3 7 2 16 -1 19 -3 4 -6 -2 -5 -13z"/>
<path d="M4940 2659 c0 -5 5 -7 10 -4 6 3 10 8 10 11 0 2 -4 4 -10 4 -5 0 -10
-5 -10 -11z"/>
<path d="M4885 2510 c3 -5 8 -10 11 -10 2 0 4 5 4 10 0 6 -5 10 -11 10 -5 0
-7 -4 -4 -10z"/>
<path d="M4860 2462 c0 -7 5 -12 10 -12 6 0 15 -10 20 -22 6 -15 9 -17 9 -7 1
9 -8 24 -19 34 -11 10 -20 13 -20 7z"/>
<path d="M4836 2445 c4 -8 11 -15 16 -15 6 0 5 6 -2 15 -7 8 -14 15 -16 15 -2
0 -1 -7 2 -15z"/>
<path d="M4823 2406 c1 -11 9 -21 17 -23 10 -3 11 -2 4 4 -6 4 -14 15 -17 23
-5 11 -6 9 -4 -4z"/>
<path d="M6115 4090 c3 -5 8 -10 11 -10 2 0 4 5 4 10 0 6 -5 10 -11 10 -5 0
-7 -4 -4 -10z"/>
<path d="M5400 3560 c0 -6 7 -10 15 -10 8 0 15 2 15 4 0 2 -7 6 -15 10 -8 3
-15 1 -15 -4z"/>
<path d="M6055 3522 c-3 -3 -5 -10 -5 -16 0 -6 5 -4 10 4 8 12 10 11 10 -7 0
-30 15 -30 16 0 2 21 -17 32 -31 19z"/>
<path d="M6046 3453 c-6 -14 -5 -15 5 -6 7 7 10 15 7 18 -3 3 -9 -2 -12 -12z"/>
<path d="M6021 3332 c-1 -7 -5 -11 -9 -8 -4 2 -14 0 -22 -6 -12 -8 -12 -9 3
-4 9 3 17 0 17 -6 0 -9 3 -9 11 -1 6 6 9 17 6 25 -4 10 -6 10 -6 0z"/>
<path d="M6125 3330 c-3 -5 -1 -10 4 -10 6 0 11 5 11 10 0 6 -2 10 -4 10 -3 0
-8 -4 -11 -10z"/>
<path d="M4645 2310 c3 -5 11 -10 16 -10 6 0 7 5 4 10 -3 6 -11 10 -16 10 -6
0 -7 -4 -4 -10z"/>
<path d="M4868 2313 c7 -3 16 -2 19 1 4 3 -2 6 -13 5 -11 0 -14 -3 -6 -6z"/>
<path d="M4400 2279 c0 -5 5 -7 10 -4 6 3 10 8 10 11 0 2 -4 4 -10 4 -5 0 -10
-5 -10 -11z"/>
<path d="M4876 2247 c-16 -15 -27 -30 -24 -32 7 -7 60 44 56 53 -2 4 -16 -5
-32 -21z"/>
<path d="M4415 2260 c-3 -5 -1 -10 4 -10 6 0 11 5 11 10 0 6 -2 10 -4 10 -3 0
-8 -4 -11 -10z"/>
<path d="M4981 2218 c-1 -10 6 -18 14 -18 8 0 15 5 15 11 0 5 -4 8 -9 5 -5 -4
-12 0 -14 6 -3 8 -6 6 -6 -4z"/>
<path d="M4877 2206 c-17 -13 -16 -14 7 -12 15 0 26 7 26 14 0 15 -10 15 -33
-2z"/>
<path d="M4672 2198 c-14 -14 -16 -28 -3 -28 5 0 11 9 14 20 6 23 5 24 -11 8z"/>
<path d="M4688 2178 c-4 -9 -4 -18 -1 -21 7 -8 33 3 33 15 0 5 -4 7 -9 4 -5
-4 -11 -1 -13 6 -3 8 -6 6 -10 -4z"/>
<path d="M4733 2167 c-18 -12 -33 -25 -33 -29 0 -14 28 -8 34 7 3 8 12 15 20
15 7 0 16 7 20 15 7 20 -3 18 -41 -8z"/>
<path d="M4836 2102 c-8 -14 29 -22 45 -10 11 8 11 9 -2 5 -9 -3 -21 -1 -27 5
-6 6 -12 6 -16 0z"/>
<path d="M4907 2095 c-4 -8 -2 -17 2 -20 5 -2 11 4 14 15 6 23 -8 27 -16 5z"/>
<path d="M4531 2067 c7 -15 16 -27 21 -27 14 0 9 16 -13 36 -21 19 -21 19 -8
-9z"/>
<path d="M4935 1910 c-3 -5 -1 -10 4 -10 6 0 11 5 11 10 0 6 -2 10 -4 10 -3 0
-8 -4 -11 -10z"/>
<path d="M5005 1900 c-3 -5 -1 -10 4 -10 6 0 11 5 11 10 0 6 -2 10 -4 10 -3 0
-8 -4 -11 -10z"/>
<path d="M4870 1881 c0 -6 4 -13 10 -16 6 -3 7 1 4 9 -7 18 -14 21 -14 7z"/>
<path d="M5020 1865 c0 -8 4 -15 10 -15 5 0 7 7 4 15 -4 8 -8 15 -10 15 -2 0
-4 -7 -4 -15z"/>
<path d="M5095 1870 c-3 -5 -1 -10 4 -10 6 0 11 5 11 10 0 6 -2 10 -4 10 -3 0
-8 -4 -11 -10z"/>
<path d="M5121 1814 c0 -11 3 -14 6 -6 3 7 2 16 -1 19 -3 4 -6 -2 -5 -13z"/>
<path d="M5257 1803 c-4 -3 -7 -11 -7 -17 0 -6 5 -5 12 2 6 6 9 14 7 17 -3 3
-9 2 -12 -2z"/>
<path d="M5107 1779 c4 -13 8 -18 11 -10 2 7 -1 18 -6 23 -8 8 -9 4 -5 -13z"/>
<path d="M5200 2502 c0 -4 10 -9 22 -9 18 -2 20 0 8 7 -18 12 -30 13 -30 2z"/>
<path d="M5380 2499 c0 -5 5 -7 10 -4 6 3 10 8 10 11 0 2 -4 4 -10 4 -5 0 -10
-5 -10 -11z"/>
</g>
</svg>
